<?xml version="1.0" standalone="no"?>
<!DOCTYPE svg PUBLIC "-//W3C//DTD SVG 20010904//EN"
 "http://www.w3.org/TR/2001/REC-SVG-20010904/DTD/svg10.dtd">
<svg version="1.0" xmlns="http://www.w3.org/2000/svg"
 width="1540.000000pt" height="1540.000000pt" viewBox="0 0 1540.000000 1540.000000"
 preserveAspectRatio="xMidYMid meet">
<metadata>
Created by potrace 1.14, written by Peter Selinger 2001-2017
</metadata>
<g transform="translate(0.000000,1540.000000) scale(0.100000,-0.100000)"
fill="#000000" stroke="none">
<path d="M6125 12940 c-3 -5 -1 -10 4 -10 6 0 11 5 11 10 0 6 -2 10 -4 10 -3
0 -8 -4 -11 -10z"/>
<path d="M6170 12929 c0 -5 5 -7 10 -4 6 3 10 8 10 11 0 2 -4 4 -10 4 -5 0
-10 -5 -10 -11z"/>
<path d="M6023 12915 c4 -9 -1 -11 -14 -8 -11 3 -28 -2 -40 -13 -19 -17 -20
-17 -13 0 4 12 -5 7 -25 -13 -18 -17 -36 -29 -42 -26 -5 4 -12 -1 -15 -9 -3
-9 -10 -16 -16 -16 -5 0 -6 6 -3 13 4 6 -3 1 -15 -13 -12 -14 -18 -18 -14 -10
4 8 -3 5 -15 -7 -12 -13 -29 -23 -38 -23 -13 0 -13 -3 -3 -15 11 -13 10 -14
-2 -10 -10 4 -22 -10 -40 -47 -37 -75 -63 -138 -72 -173 -4 -16 -18 -52 -31
-80 -13 -27 -40 -88 -60 -135 -36 -84 -48 -111 -78 -180 -8 -19 -21 -54 -28
-77 -7 -24 -15 -43 -19 -43 -4 0 -15 -30 -24 -67 -10 -37 -21 -72 -26 -78 -4
-5 -11 -26 -15 -45 -8 -37 -47 -119 -77 -159 -10 -13 -18 -32 -18 -43 0 -10
-11 -36 -25 -58 -14 -22 -25 -44 -25 -50 0 -5 -16 -41 -35 -79 -19 -37 -35
-75 -35 -84 0 -9 -4 -18 -9 -21 -5 -3 -12 -18 -16 -33 -8 -33 -70 -195 -90
-238 -8 -16 -18 -46 -22 -65 -3 -19 -21 -55 -38 -80 -17 -25 -39 -63 -49 -85
-9 -22 -26 -56 -37 -75 -11 -19 -27 -48 -35 -65 -8 -16 -26 -48 -40 -70 -14
-22 -28 -49 -31 -59 -4 -11 -30 -65 -58 -120 -29 -56 -51 -109 -49 -118 1 -10
-2 -18 -7 -18 -6 0 -7 -4 -4 -10 3 -5 1 -10 -6 -10 -8 0 -8 -4 1 -15 10 -12 9
-16 -4 -21 -10 -4 -15 -13 -12 -20 3 -8 1 -14 -5 -14 -6 0 -8 -4 -4 -9 3 -5 1
-13 -5 -16 -8 -5 -7 -12 2 -23 8 -10 9 -13 1 -9 -14 9 -22 -3 -25 -37 -1 -14
-8 -28 -14 -30 -7 -3 -10 -14 -7 -27 4 -15 3 -20 -5 -15 -7 4 -12 2 -12 -3 0
-6 6 -11 13 -11 8 -1 7 -5 -4 -13 -9 -7 -15 -20 -13 -29 1 -10 -2 -18 -6 -18
-5 0 -7 -9 -5 -20 2 -11 0 -18 -6 -15 -5 4 -10 -3 -10 -14 -1 -12 -3 -25 -4
-31 -1 -5 -3 -15 -4 -21 0 -5 -5 -7 -11 -4 -6 4 -7 -1 -3 -10 3 -10 0 -21 -7
-25 -7 -4 -12 -19 -12 -34 0 -14 -4 -23 -9 -21 -4 3 -6 -6 -3 -21 3 -18 1 -23
-7 -18 -9 5 -10 1 -7 -14 4 -14 2 -20 -5 -15 -6 4 -8 -2 -4 -16 3 -13 3 -20 0
-17 -6 6 -33 -55 -36 -84 -1 -8 -8 -19 -14 -23 -7 -4 -13 -18 -13 -29 0 -12
-8 -31 -17 -42 -17 -20 -17 -20 0 -7 15 12 17 12 11 -2 -3 -8 -13 -18 -22 -22
-14 -5 -14 -7 -2 -15 11 -7 12 -10 2 -10 -8 0 -10 -5 -6 -12 5 -7 2 -9 -8 -5
-16 6 -19 -15 -5 -30 5 -4 -2 -16 -15 -26 -13 -10 -16 -15 -8 -11 9 5 7 -5 -8
-30 -12 -21 -19 -42 -16 -48 4 -7 2 -8 -4 -4 -7 4 -12 2 -12 -4 0 -6 -5 -8
-12 -4 -10 6 -10 4 0 -8 10 -13 10 -17 -3 -22 -8 -3 -15 -13 -15 -21 0 -10 -5
-13 -12 -9 -8 5 -8 2 1 -10 12 -15 12 -17 0 -14 -8 2 -13 -3 -11 -10 1 -7 -5
-15 -13 -18 -8 -3 -12 -10 -9 -15 3 -5 -2 -12 -10 -15 -9 -3 -14 -9 -11 -13 7
-12 -76 -174 -96 -189 -10 -7 -19 -22 -21 -35 -2 -12 -13 -26 -25 -32 -13 -5
-23 -13 -23 -18 0 -4 -4 -5 -10 -2 -9 5 -11 1 -10 -20 0 -3 -7 -19 -16 -36
-11 -21 -13 -43 -9 -70 8 -44 -10 -83 -42 -93 -38 -13 -84 -115 -63 -141 11
-13 -21 -106 -95 -275 -59 -135 -75 -168 -89 -179 -7 -6 -21 -33 -31 -59 -10
-26 -24 -54 -31 -63 -8 -8 -14 -23 -14 -32 0 -10 -4 -25 -9 -35 -19 -35 -51
-112 -51 -122 0 -5 -4 -10 -9 -10 -5 0 -17 -23 -27 -51 -11 -28 -25 -54 -31
-56 -7 -3 -13 -10 -13 -17 0 -6 -9 -22 -20 -36 -11 -14 -20 -36 -20 -50 0 -14
-11 -41 -24 -60 -13 -19 -26 -45 -30 -57 -4 -13 -11 -23 -15 -23 -4 0 -13 -23
-21 -52 -7 -29 -26 -70 -41 -92 -20 -27 -29 -51 -29 -79 0 -22 -10 -56 -22
-78 -17 -31 -19 -41 -9 -53 8 -10 11 -29 6 -53 -4 -25 -1 -51 10 -76 15 -36
22 -41 58 -38 9 1 17 -3 17 -8 0 -20 17 -11 36 17 14 22 15 25 1 14 -14 -12
-16 -11 -14 6 1 13 7 18 19 14 14 -3 17 0 12 14 -5 15 -4 16 4 5 6 -8 8 -20 5
-28 -3 -7 0 -13 7 -13 6 0 8 4 5 10 -3 6 -1 10 5 10 7 0 7 7 -1 23 -11 19 -10
21 3 9 13 -10 17 -10 22 0 3 7 3 2 0 -12 -5 -24 -4 -24 10 -6 9 11 16 16 16
11 0 -4 8 -1 18 8 10 10 23 14 28 10 5 -5 1 1 -9 13 -14 17 -14 21 -2 21 8 0
16 -6 19 -14 3 -7 11 -13 18 -13 9 0 8 3 -2 10 -8 5 -11 10 -6 10 5 0 2 8 -5
17 -8 10 -9 14 -2 10 6 -4 16 0 21 9 8 15 10 15 15 0 4 -9 13 -13 22 -10 8 3
12 11 8 18 -11 17 -12 37 -2 30 5 -3 7 -9 4 -14 -3 -4 2 -10 9 -13 10 -4 14 0
11 13 -2 12 1 17 9 14 7 -3 19 3 27 13 13 16 12 17 -3 5 -11 -9 -18 -10 -23
-2 -3 5 -5 10 -3 11 2 0 14 3 28 5 31 6 42 24 27 43 -9 12 -9 13 1 7 7 -4 12
-1 12 9 0 9 5 13 10 10 7 -4 9 3 6 19 -3 19 -1 23 10 19 8 -3 14 -2 13 3 -4
26 2 45 14 38 9 -5 9 -4 0 6 -13 14 -7 40 9 40 6 0 5 -6 -2 -15 -7 -9 -8 -15
-2 -15 16 0 22 26 9 39 -9 10 -9 12 2 9 7 -2 16 3 19 11 2 8 0 11 -6 8 -5 -4
-16 1 -23 11 -13 15 -12 16 3 4 11 -9 18 -10 23 -2 3 5 0 10 -7 10 -9 0 -9 3
-2 8 6 4 13 15 17 25 4 10 12 15 17 12 6 -4 9 -3 8 2 -4 15 13 53 24 53 5 0 7
7 4 16 -3 9 -2 12 4 9 7 -4 9 3 6 19 -3 17 -1 24 6 20 6 -4 9 -1 6 7 -3 8 4
20 16 27 14 9 16 12 4 8 -36 -11 -15 79 28 119 11 11 29 47 39 80 19 64 65
168 78 173 4 2 7 8 7 13 0 6 -6 7 -12 4 -7 -4 -4 1 6 9 14 11 15 16 6 16 -9 0
-8 4 5 13 10 8 15 19 11 25 -4 7 -2 12 4 12 7 0 9 8 5 19 -3 11 -2 22 4 25 11
7 69 129 73 153 4 21 30 51 40 46 4 -2 5 2 3 10 -3 7 7 31 23 53 16 22 33 50
36 62 11 34 47 24 103 -31 84 -83 123 -105 123 -72 0 22 23 18 48 -7 26 -29
82 -134 82 -157 1 -49 196 -155 241 -131 8 5 43 11 79 15 54 6 68 4 79 -9 17
-20 31 -21 31 -2 0 20 29 27 73 17 44 -10 63 -25 82 -61 7 -14 26 -32 42 -40
15 -8 49 -27 74 -42 25 -16 56 -28 68 -28 12 0 35 -7 50 -15 22 -11 41 -12 82
-6 52 9 55 8 96 -25 23 -19 46 -34 52 -34 6 0 17 -13 26 -29 8 -16 24 -32 35
-36 11 -3 20 -10 20 -15 0 -5 17 -18 38 -31 41 -25 142 -118 142 -132 0 -5 10
-17 23 -27 12 -10 51 -59 87 -109 36 -49 70 -90 77 -90 6 -1 36 -35 67 -76 31
-41 61 -77 66 -80 6 -3 10 -15 10 -25 0 -10 9 -21 19 -25 11 -3 26 -21 35 -40
9 -19 21 -37 26 -40 6 -3 10 -14 10 -24 0 -12 14 -24 40 -34 22 -8 40 -22 40
-30 0 -9 17 -26 38 -38 20 -13 56 -39 79 -59 37 -33 81 -51 67 -28 -3 5 -10 5
-16 2 -7 -5 -8 -2 -3 6 6 9 4 11 -6 5 -12 -8 -12 -6 0 8 16 20 22 22 18 5 -1
-7 4 -12 11 -11 6 2 12 -3 12 -11 0 -8 9 -13 23 -12 12 1 28 -3 36 -8 12 -9
12 -8 3 9 -10 19 -8 21 26 20 20 0 40 4 44 10 5 6 8 5 8 -3 0 -7 5 -10 12 -6
6 4 8 3 4 -4 -3 -6 -2 -13 4 -17 5 -3 10 1 10 10 0 9 4 14 8 11 12 -7 76 61
96 102 9 17 21 32 26 32 16 0 12 46 -5 60 -8 7 -15 20 -15 30 0 19 -23 43 -32
34 -3 -3 -8 7 -12 21 -4 14 -13 25 -21 25 -20 0 -51 49 -59 93 -5 25 -22 54
-47 82 -21 23 -39 49 -39 58 0 9 -8 18 -17 21 -27 9 -103 83 -103 100 0 11
-67 107 -89 126 -3 3 -19 24 -35 47 -15 23 -39 49 -51 57 -13 9 -26 25 -30 36
-3 11 -13 20 -21 20 -18 0 -17 10 1 33 15 21 10 42 -17 72 -11 11 -18 34 -18
55 1 48 -9 99 -26 137 -8 17 -14 43 -14 57 0 14 -9 35 -20 46 -18 18 -19 27
-11 77 5 31 5 64 1 73 -15 29 -30 87 -30 111 0 14 -7 48 -15 75 -8 27 -15 54
-16 59 0 6 -5 18 -10 28 -6 9 -12 59 -15 110 -4 65 -12 110 -30 154 -16 40
-23 74 -20 94 5 33 -9 85 -30 109 -9 11 -11 40 -8 100 7 128 9 136 43 175 17
20 31 41 31 48 0 8 21 32 48 54 88 76 170 163 197 209 34 58 46 73 118 146 31
33 57 65 57 73 0 7 11 22 25 33 14 11 25 29 25 39 0 22 83 131 135 178 18 17
47 56 65 87 17 32 37 61 45 65 7 5 23 26 36 48 13 22 36 56 51 75 15 19 28 38
28 42 0 10 41 69 68 98 12 13 22 32 22 41 0 10 4 20 9 24 11 6 71 93 71 102 0
3 11 18 25 35 14 16 25 35 25 42 0 7 12 29 28 49 15 19 35 49 44 67 37 66 41
32 34 -259 -7 -292 -12 -426 -16 -426 -1 0 -4 -20 -5 -45 -2 -25 -5 -58 -8
-75 -3 -16 -11 -73 -17 -125 -6 -52 -18 -138 -26 -190 -8 -52 -17 -155 -20
-230 -2 -74 -7 -166 -9 -205 -9 -126 -15 -335 -19 -615 -2 -151 -6 -295 -9
-320 -3 -25 -9 -97 -13 -160 -4 -63 -8 -131 -9 -150 -8 -103 -17 -194 -25
-270 -5 -47 -12 -101 -14 -120 -2 -19 -6 -65 -10 -101 -3 -36 -13 -88 -21
-115 -8 -27 -15 -65 -15 -85 0 -20 -4 -49 -10 -65 -5 -16 -11 -40 -12 -54 -2
-14 -7 -31 -12 -38 -4 -8 -10 -62 -13 -121 -6 -127 6 -161 84 -236 46 -43 72
-59 57 -32 -4 6 1 5 12 -4 17 -14 33 -15 89 -7 6 0 20 -2 33 -6 13 -4 22 -3
22 3 0 6 7 8 15 5 8 -3 26 4 41 15 35 28 50 26 71 -6 9 -16 18 -29 19 -31 1
-2 12 3 23 10 18 11 23 11 31 -2 5 -8 7 -18 4 -22 -3 -4 1 -18 8 -30 7 -13 11
-27 10 -32 -2 -5 4 -6 12 -3 10 4 13 1 10 -8 -3 -7 4 -18 15 -25 12 -6 21 -7
21 -3 0 4 5 0 11 -9 12 -22 33 -24 25 -3 -6 17 8 10 76 -33 20 -13 42 -21 47
-17 6 3 20 0 32 -8 15 -11 17 -16 7 -20 -7 -3 6 -2 30 0 31 4 42 2 42 -8 0
-11 2 -11 10 1 6 9 10 10 10 3 0 -18 34 -21 48 -3 11 13 12 13 10 0 -2 -8 3
-14 10 -13 6 2 12 -2 12 -8 0 -8 5 -8 15 1 11 9 15 9 15 1 0 -7 5 -9 10 -6 6
4 16 3 23 -2 18 -13 47 -9 57 7 8 12 10 12 10 1 0 -9 8 -12 25 -9 16 4 29 0
34 -9 7 -13 9 -13 14 0 4 10 14 13 31 10 14 -3 34 1 43 8 12 10 14 10 9 2 -9
-17 6 -17 23 -1 11 11 12 10 6 0 -6 -11 -3 -12 13 -3 26 14 35 14 27 1 -8 -13
28 0 37 14 5 7 8 6 8 -2 0 -10 4 -10 16 2 8 9 24 16 34 16 10 0 21 4 24 8 3 5
19 9 35 10 16 0 39 6 51 12 11 6 24 9 29 6 5 -3 42 12 82 34 41 21 90 47 110
56 20 10 47 35 60 56 24 38 57 55 122 60 25 2 26 3 9 22 -17 19 -17 19 8 3 13
-9 31 -17 40 -16 10 0 9 3 -5 8 -19 7 -18 9 5 22 14 7 29 12 34 11 5 -2 3 5
-5 14 -12 16 -12 17 3 11 11 -4 17 -2 15 5 -1 6 4 13 12 16 9 3 11 0 6 -8 -5
-9 -4 -11 4 -6 9 6 9 11 1 21 -12 14 12 30 43 26 23 -3 22 5 -3 12 -14 3 -30
-4 -50 -25 -17 -16 -30 -28 -31 -26 -6 27 -6 37 2 32 12 -7 71 35 64 47 -4 5
1 6 10 2 13 -5 14 -7 3 -14 -7 -5 -8 -9 -2 -9 6 0 14 3 18 8 4 4 12 7 17 7 5
0 9 4 8 8 0 5 7 15 17 21 10 8 15 20 11 29 -4 12 -2 14 10 10 11 -4 14 -2 9 5
-5 8 -1 10 10 5 12 -4 15 -3 10 5 -4 7 -1 12 9 12 9 0 13 5 10 10 -3 6 -1 10
5 10 6 0 9 4 5 9 -3 5 4 12 15 16 17 6 25 22 21 47 0 4 7 4 16 1 11 -4 14 -3
9 5 -4 7 -2 12 4 12 7 0 9 7 6 17 -4 10 -4 14 0 10 4 -4 14 2 21 13 8 11 20
17 26 14 7 -4 9 -4 5 1 -4 4 1 15 10 24 10 9 12 12 5 7 -8 -5 -16 -6 -20 -2
-3 3 -2 6 4 6 6 0 27 16 47 35 21 19 34 35 30 35 -4 0 1 7 12 16 10 8 13 12 5
8 -9 -5 -12 -3 -7 4 4 7 13 12 21 12 7 0 16 7 19 16 6 15 4 15 -11 3 -17 -13
-17 -13 0 7 9 11 17 26 17 32 0 6 7 15 16 20 10 6 14 20 12 43 -2 27 3 39 23
57 34 28 39 28 34 0 -4 -23 -4 -22 15 2 11 14 19 30 19 35 0 6 -3 4 -6 -2 -2
-7 -9 -13 -14 -13 -18 0 -8 23 26 61 20 23 35 50 35 64 0 14 5 25 11 25 6 0
37 22 68 50 42 35 63 48 78 44 12 -3 32 2 46 11 14 9 39 15 55 14 16 -2 37 3
46 10 9 7 16 11 16 8 0 -3 16 -1 35 3 23 5 33 4 28 -3 -4 -6 4 -8 20 -5 15 3
24 1 21 -3 -3 -5 19 -9 48 -9 29 0 61 -1 71 -1 9 0 17 -5 17 -10 0 -6 6 -7 13
-2 19 12 36 12 44 1 4 -7 1 -8 -8 -3 -11 6 -11 5 -2 -5 17 -19 37 -2 21 18
-12 16 -11 16 7 1 11 -9 27 -14 35 -12 13 4 13 3 0 -6 -8 -5 -18 -7 -22 -5 -4
3 -8 1 -8 -4 0 -9 27 -24 39 -23 3 0 6 8 7 17 4 24 9 25 23 2 7 -11 8 -17 2
-13 -6 3 -11 2 -11 -2 0 -5 10 -14 23 -22 19 -12 20 -12 10 0 -9 11 -8 19 4
34 14 18 15 18 9 1 -3 -10 -1 -25 5 -32 13 -16 39 -19 39 -4 0 5 -8 7 -17 4
-16 -5 -16 -4 -3 6 13 10 12 11 -3 6 -10 -3 -15 -2 -12 3 7 13 44 9 42 -4 -1
-5 4 -9 11 -7 6 1 12 -3 12 -10 0 -9 3 -9 12 0 7 7 17 12 23 12 5 0 3 -5 -5
-10 -10 -6 -11 -10 -2 -10 6 0 12 -6 12 -14 0 -8 -6 -16 -12 -19 -7 -3 -3 -4
9 -4 12 1 20 4 17 8 -2 4 7 9 21 11 13 3 24 2 23 -1 -2 -18 3 -22 15 -12 10 8
14 7 14 -4 0 -8 -4 -12 -9 -9 -4 3 -8 0 -8 -6 0 -6 8 -10 18 -8 9 2 15 11 14
19 -2 8 0 11 4 6 14 -13 15 -49 2 -65 -11 -13 -11 -14 2 -7 8 5 23 11 34 12
16 3 17 1 6 -12 -11 -14 -10 -14 16 0 24 12 32 12 48 1 23 -15 33 -36 17 -36
-6 0 -10 6 -9 13 2 6 -3 11 -9 9 -7 -1 -13 3 -13 9 0 5 -4 7 -10 4 -5 -3 -10
-14 -10 -23 0 -15 2 -15 10 -2 9 13 14 7 11 -13 0 -4 2 -6 6 -6 19 3 33 -2 33
-12 0 -5 -5 -7 -12 -3 -7 4 -8 3 -4 -5 10 -15 29 -3 22 15 -3 8 -1 14 4 14 6
0 10 -6 10 -13 0 -7 9 -18 20 -25 12 -7 18 -17 15 -22 -4 -6 1 -7 11 -3 12 4
15 3 10 -6 -4 -6 -4 -11 1 -10 12 3 63 -23 63 -32 0 -4 9 -6 19 -4 11 2 22 -3
25 -12 4 -8 13 -13 21 -9 8 3 15 1 15 -4 0 -6 6 -10 14 -10 8 0 28 -11 44 -25
17 -14 35 -25 41 -25 6 0 19 -4 29 -10 9 -5 35 -17 56 -26 22 -10 34 -20 28
-22 -13 -4 -17 -23 -4 -21 38 6 52 -2 52 -33 l0 -31 19 21 c19 23 41 29 41 12
0 -6 3 -9 8 -9 23 4 30 -4 28 -31 -1 -18 4 -32 13 -36 26 -12 41 -13 35 -3 -3
5 2 9 10 9 27 0 31 -2 28 -11 -1 -5 6 -4 16 2 14 9 25 7 52 -9 19 -11 34 -25
32 -33 -2 -10 0 -9 13 1 14 12 18 11 26 -1 7 -11 9 -11 9 0 0 11 3 11 17 0 11
-10 14 -10 9 -1 -4 6 -4 12 -1 12 25 0 110 -29 167 -57 38 -18 72 -33 76 -33
29 -2 99 -105 94 -140 -1 -11 0 -11 4 -2 5 10 12 8 30 -9 13 -12 24 -28 24
-34 0 -7 9 -20 20 -30 13 -12 18 -25 14 -38 -4 -13 -2 -17 5 -13 6 4 11 2 11
-4 0 -7 6 -10 13 -7 6 2 18 -2 25 -9 7 -8 8 -14 2 -14 -20 0 -9 -16 12 -17 13
-1 28 -9 34 -18 6 -8 18 -15 26 -15 8 0 21 -12 29 -27 8 -16 18 -31 24 -35 6
-5 4 -12 -5 -18 -12 -8 -12 -10 -1 -10 10 0 11 -3 3 -13 -12 -14 1 -43 15 -34
11 7 44 -28 36 -37 -4 -3 1 -6 10 -6 10 0 17 -5 17 -11 0 -5 5 -7 12 -3 7 5 9
1 6 -12 -3 -11 1 -25 9 -32 10 -10 13 -10 13 0 1 8 6 6 14 -5 8 -10 30 -21 50
-24 20 -3 36 -10 36 -16 0 -6 5 -6 13 1 18 15 68 10 62 -6 -3 -8 0 -10 8 -5 6
4 20 9 31 10 14 2 17 -1 12 -14 -5 -16 -4 -16 8 1 11 13 27 18 58 18 29 -1 38
2 28 8 -8 6 -10 10 -4 10 6 0 14 -3 18 -7 4 -4 58 -8 121 -9 63 -1 120 -6 126
-10 7 -4 9 -3 5 4 -4 6 1 11 11 11 44 1 54 6 59 27 4 15 18 27 40 34 19 6 37
17 41 24 5 7 15 16 23 19 11 5 9 6 -5 6 -44 -2 -47 0 -28 26 10 13 23 25 30
25 8 0 12 15 10 45 -2 35 -7 47 -25 57 -13 7 -31 29 -39 49 -8 20 -20 36 -28
35 -8 0 -14 3 -14 8 1 5 -6 13 -15 18 -9 5 -14 13 -11 19 6 8 -9 13 -29 10 -4
-1 -6 12 -4 28 2 17 1 28 -4 25 -14 -9 -38 23 -32 43 6 17 6 17 -7 0 -14 -17
-15 -17 -16 5 -1 12 -7 24 -13 26 -5 2 -7 9 -3 15 4 6 1 8 -8 5 -12 -5 -15 2
-12 31 1 23 -1 31 -6 22 -7 -11 -9 -11 -14 0 -4 10 -6 9 -6 -3 -1 -9 5 -19 12
-21 9 -4 9 -6 -1 -6 -18 -1 -26 27 -13 43 8 10 6 17 -7 30 -10 9 -22 13 -25 9
-4 -3 -7 -1 -7 5 0 7 4 12 9 12 6 0 9 9 8 21 -1 18 -3 18 -13 5 -15 -21 -23
-20 -19 2 1 9 -6 24 -17 32 -10 9 -21 29 -23 45 -3 17 -7 41 -9 55 -2 16 -9
24 -20 23 -10 0 -15 2 -12 5 3 3 1 11 -6 19 -8 11 -7 12 5 8 8 -4 18 -1 23 6
4 7 3 10 -3 6 -14 -9 -31 14 -28 36 3 14 0 16 -9 7 -10 -8 -12 -5 -8 15 2 14
9 25 16 25 6 1 -1 8 -16 16 -27 14 -38 34 -19 34 5 0 7 10 3 22 -5 21 -6 21
-13 2 -7 -19 -8 -19 -9 1 -2 11 -2 26 -1 33 1 6 -3 12 -9 12 -5 0 -10 5 -10
11 0 5 6 7 13 3 8 -6 8 -3 -1 9 -8 9 -10 22 -6 28 5 8 2 10 -7 5 -8 -4 -5 0 6
10 14 12 15 15 4 11 -17 -6 -20 5 -22 80 0 28 -2 30 -13 15 -12 -16 -13 -15
-13 3 1 40 -8 60 -26 60 -10 0 -20 6 -23 14 -3 10 0 12 12 8 10 -4 15 -3 11 3
-3 6 -2 10 3 10 13 0 23 27 16 45 -4 8 -11 12 -16 9 -6 -4 -6 -9 2 -14 14 -9
5 -30 -13 -29 -8 0 -8 2 1 6 9 4 10 8 2 18 -8 10 -5 17 12 30 21 15 21 16 3
13 -11 -2 -23 -7 -27 -13 -7 -8 -8 -1 -8 40 0 3 3 5 8 4 4 -1 6 -4 5 -8 -1 -4
4 -8 12 -8 16 0 9 24 -11 31 -8 3 -14 15 -14 26 0 13 -4 18 -11 15 -6 -4 -5 2
2 13 7 12 16 19 20 16 4 -2 11 1 15 7 4 8 3 9 -4 5 -7 -4 -12 -2 -12 3 0 6 -8
11 -17 11 -10 0 -14 4 -8 8 13 10 17 32 6 32 -5 0 -8 11 -5 24 2 15 -1 26 -11
29 -16 7 -13 40 7 65 11 15 9 14 -14 -1 -33 -21 -51 -23 -21 -2 24 17 38 56
17 48 -8 -3 -12 -9 -9 -13 3 -5 0 -12 -7 -16 -7 -4 -10 -4 -6 1 4 4 3 14 -4
22 -9 11 -8 13 1 11 7 -2 17 7 22 20 7 18 6 22 -4 19 -6 -2 -11 -10 -9 -16 1
-6 -2 -11 -8 -11 -13 0 -13 17 0 25 6 4 8 10 5 15 -3 5 -1 11 5 15 18 11 11
28 -10 22 -18 -5 -19 -4 -5 16 19 27 20 47 1 21 -8 -10 -18 -16 -22 -11 -4 4
-2 7 4 7 19 0 14 28 -8 50 -24 24 -15 27 11 4 13 -12 19 -12 25 -3 4 8 3 10
-4 5 -7 -4 -12 -3 -12 3 0 5 5 11 12 13 7 3 5 7 -6 11 -11 5 -15 3 -10 -5 4
-7 3 -8 -4 -4 -7 4 -12 16 -12 27 0 13 -4 18 -12 13 -7 -4 -10 -3 -5 1 4 5 -1
18 -10 29 -16 19 -15 19 7 -1 19 -17 29 -19 40 -12 13 9 12 10 -2 6 -9 -3 -19
0 -22 8 -3 9 0 12 8 9 7 -3 13 2 13 10 0 8 -4 13 -9 10 -4 -3 -8 1 -8 8 0 10
-3 9 -11 -2 -9 -13 -10 -13 -6 0 2 9 15 15 30 14 22 -1 25 2 16 17 -12 23 -21
25 -13 4 5 -11 2 -13 -10 -9 -9 3 -13 10 -10 15 4 8 -8 13 -27 11 -3 -1 -6 5
-6 13 0 8 4 12 9 9 4 -3 11 3 15 13 4 10 11 21 17 25 8 5 7 8 -1 8 -7 0 -16
-7 -21 -16 -6 -10 -12 -13 -16 -6 -3 5 1 13 9 16 12 4 13 10 5 25 -13 25 -13
31 0 31 6 0 9 -3 9 -7 -3 -19 2 -33 12 -33 6 0 7 5 2 13 -10 17 -11 80 -1 94
6 7 4 14 -3 19 -8 5 -10 3 -4 -7 5 -8 4 -11 -1 -6 -5 5 -9 12 -9 15 0 4 -3 12
-7 18 -4 6 -1 11 7 11 8 0 12 -4 9 -9 -3 -4 -1 -8 4 -8 6 0 13 7 16 16 3 8 2
12 -4 9 -6 -3 -10 -1 -10 5 0 6 -5 8 -11 5 -6 -4 -5 3 3 14 11 18 11 23 -1 30
-10 7 -10 10 -1 16 9 6 9 10 -1 16 -11 7 -10 9 4 9 10 0 15 5 12 10 -4 6 -12
8 -18 4 -7 -3 -2 3 11 15 15 13 19 22 11 27 -6 3 -15 0 -20 -7 -5 -8 -9 -10
-9 -5 0 5 8 18 17 28 15 17 15 21 3 29 -12 7 -12 11 -2 17 7 5 15 21 18 35 4
25 -3 32 -28 28 -5 0 -8 4 -8 10 0 6 9 8 20 4 21 -7 28 9 10 20 -6 4 -8 10 -5
15 3 5 1 11 -5 15 -17 10 -11 25 7 18 12 -5 15 -2 10 10 -3 9 -2 17 4 17 6 0
16 6 23 13 29 27 66 57 66 52 0 -3 9 4 20 15 11 11 26 20 33 19 6 0 2 -7 -10
-16 -13 -8 -23 -19 -23 -24 0 -12 59 41 72 64 7 14 5 24 -9 40 -15 18 -13 18
10 -2 15 -14 28 -23 30 -20 1 2 9 13 17 24 14 20 14 20 -6 2 -19 -16 -22 -16
-28 -2 -3 10 -2 14 5 10 5 -4 16 -2 24 5 10 8 20 9 37 0 21 -10 21 -10 6 3
-22 17 -11 31 11 14 14 -10 14 -10 3 5 -8 9 -21 14 -30 12 -14 -5 -14 -4 1 6
12 8 22 8 30 1 9 -7 17 -7 27 1 12 8 12 9 -2 4 -10 -3 -18 -2 -19 2 0 4 -2 15
-4 25 -2 9 1 17 7 17 6 0 7 -7 4 -16 -4 -11 -2 -15 8 -11 7 3 20 0 27 -6 9 -8
9 -6 -1 7 -20 26 -21 44 -1 41 9 -1 15 -10 13 -21 -2 -18 -2 -18 11 -2 8 10
17 15 21 11 4 -4 4 0 0 10 -3 9 -11 14 -17 10 -6 -4 -7 -1 -3 6 6 9 12 8 26
-4 16 -15 19 -15 34 0 19 20 21 29 4 19 -7 -4 -10 -4 -6 1 4 4 2 15 -5 23 -9
12 -6 12 14 -1 14 -10 29 -14 32 -10 4 3 7 -1 7 -10 0 -9 4 -18 9 -21 5 -4 7
2 4 13 -3 10 1 22 8 27 9 5 11 2 6 -12 -7 -18 -7 -18 8 0 11 14 12 23 4 30 -7
8 -14 6 -22 -4 -13 -17 -32 -20 -41 -8 -3 5 -3 6 1 3 3 -3 17 2 30 10 20 14
26 14 51 1 23 -12 29 -12 29 -1 0 7 -6 11 -12 9 -7 -3 -18 3 -25 13 -12 15
-12 16 0 6 19 -17 31 -16 24 1 -7 18 12 30 22 15 4 -8 3 -9 -4 -5 -7 4 -12 3
-12 -3 0 -20 18 -20 42 -1 19 14 25 15 25 5 0 -8 -4 -12 -8 -10 -4 3 -10 -2
-13 -11 -3 -8 -10 -12 -16 -9 -5 3 -10 1 -10 -4 0 -15 6 -14 35 5 14 9 25 23
25 31 0 8 5 11 10 8 6 -4 8 -10 5 -15 -3 -4 3 -7 12 -5 10 2 21 4 26 4 4 1 7
6 7 12 0 8 -4 8 -14 0 -10 -9 -15 -8 -19 1 -3 9 6 13 28 13 24 0 31 -4 28 -15
-4 -13 -4 -13 6 0 6 8 11 11 11 7 0 -16 40 14 40 31 0 14 2 15 10 2 8 -12 10
-12 16 3 3 9 10 14 15 11 6 -3 16 0 24 6 8 6 19 9 24 6 5 -4 13 -2 16 4 8 13
86 46 99 42 5 -2 18 5 29 15 14 13 18 14 12 3 -4 -8 2 -5 14 7 12 13 34 25 49
29 42 9 112 38 112 47 0 4 11 7 25 7 14 0 25 4 25 9 0 5 19 12 43 16 23 4 47
12 54 17 7 5 17 7 23 3 6 -4 9 -1 8 7 -2 7 8 14 22 16 20 2 22 1 10 -7 -18
-13 -1 -14 19 -2 7 5 10 14 7 20 -9 14 0 14 25 1 14 -8 19 -8 17 1 -2 7 12 16
31 20 18 4 36 11 40 17 3 5 21 13 40 17 23 5 31 4 27 -4 -7 -10 1 -10 42 5 9
4 24 8 32 10 33 6 46 10 66 22 12 6 24 8 28 5 3 -3 6 -1 6 5 0 7 13 9 35 7 21
-3 35 -1 35 6 0 6 8 9 18 7 9 -2 22 3 28 11 6 8 28 16 47 17 20 2 45 8 56 14
26 13 40 13 21 -1 -12 -9 -11 -10 5 -4 11 4 31 9 45 11 14 3 42 11 63 19 20 8
37 12 37 9 0 -4 6 -2 13 3 6 5 32 11 57 12 25 2 50 6 55 11 6 4 35 13 65 20
30 7 62 15 70 18 8 3 24 6 35 7 11 1 37 10 58 19 35 15 37 15 37 -1 0 -16 1
-16 13 0 10 15 64 35 141 52 10 2 30 12 43 20 14 9 31 14 38 11 7 -2 16 2 19
10 3 9 9 13 14 10 4 -2 27 13 50 35 24 21 42 39 40 40 -2 0 -16 3 -33 5 -33 6
-46 20 -38 41 3 9 -3 13 -21 13 -14 0 -26 4 -26 9 0 6 -9 8 -20 6 -11 -2 -18
0 -15 4 6 10 -18 21 -46 21 -14 0 -18 -4 -13 -12 6 -10 5 -10 -7 -1 -13 10
-123 16 -278 13 -13 0 -33 8 -44 17 -11 10 -17 12 -13 6 5 -9 0 -13 -16 -13
-19 0 -20 -2 -8 -10 11 -8 9 -9 -12 -8 -16 1 -28 6 -28 10 0 4 -5 8 -11 8 -5
0 -8 -4 -5 -8 2 -4 -4 -8 -15 -8 -10 0 -19 5 -19 11 0 6 -3 6 -8 -1 -4 -6 -25
-14 -47 -17 -22 -3 -51 -8 -65 -11 -14 -2 -45 -8 -70 -11 -24 -4 -48 -9 -53
-12 -5 -3 -13 1 -18 8 -7 12 -10 12 -18 1 -4 -8 -11 -13 -15 -12 -3 1 -19 -1
-34 -4 -15 -4 -41 -2 -58 3 -18 5 -37 5 -47 -1 -11 -6 -17 -5 -17 2 0 6 -5 8
-10 5 -6 -4 -8 -11 -5 -16 4 -5 -2 -9 -12 -10 -10 0 -29 -2 -42 -5 -21 -4 -22
-3 -10 13 13 16 12 17 -3 5 -9 -8 -22 -11 -27 -8 -5 4 -16 -3 -24 -14 -7 -11
-16 -18 -18 -15 -3 2 -34 -4 -70 -15 -76 -23 -72 -23 -63 -9 3 6 -6 3 -22 -7
-15 -11 -31 -18 -34 -16 -12 6 -111 -22 -121 -35 -6 -7 -28 -13 -48 -14 -51
-1 -148 -22 -162 -36 -6 -6 -18 -9 -25 -6 -8 3 -14 0 -14 -7 0 -7 -7 -10 -15
-7 -8 4 -17 2 -21 -4 -4 -7 -10 -6 -19 1 -9 8 -17 7 -26 -2 -8 -7 -25 -14 -39
-16 -14 -1 -33 -4 -42 -5 -9 0 -14 -5 -12 -9 4 -6 -7 -11 -18 -7 -2 0 -16 -5
-32 -11 -22 -8 -32 -7 -45 2 -14 12 -14 11 -2 -4 7 -10 12 -18 10 -19 -2 0
-26 -3 -54 -6 -27 -2 -53 -9 -56 -15 -4 -6 -13 -7 -20 -3 -8 6 -11 4 -7 -7 4
-8 0 -15 -8 -15 -7 0 -10 5 -7 11 3 6 -5 2 -18 -10 -13 -12 -39 -27 -56 -35
-18 -8 -33 -18 -33 -24 0 -5 -5 -3 -10 5 -6 10 -10 11 -10 3 0 -8 -13 -13 -29
-13 -17 0 -33 -5 -37 -12 -5 -7 -3 -8 6 -3 9 6 11 4 5 -4 -5 -9 -10 -10 -18
-2 -6 6 -16 11 -21 11 -6 0 -4 -5 4 -10 13 -8 12 -10 -5 -11 -11 -1 -24 -1
-29 0 -5 1 -3 -5 4 -14 11 -13 10 -14 -5 -9 -13 5 -16 4 -10 -5 6 -10 3 -11
-15 -1 -13 7 -20 8 -16 2 3 -6 -2 -13 -13 -17 -11 -3 -22 -12 -25 -20 -7 -20
-33 -19 -46 3 -10 15 -11 15 -6 0 2 -9 -2 -22 -10 -28 -13 -12 -19 -4 -15 22
0 4 -6 5 -14 2 -8 -4 -15 -11 -15 -16 0 -6 -8 -4 -17 3 -16 12 -16 11 0 -8 20
-23 5 -45 -16 -23 -9 10 -9 11 2 5 9 -5 12 -4 7 3 -11 18 -26 14 -26 -5 0 -13
-3 -14 -11 -6 -9 9 -18 4 -36 -17 -15 -18 -31 -27 -43 -25 -11 2 -20 0 -20 -4
0 -5 -12 -6 -26 -3 -19 3 -25 1 -20 -7 10 -16 -10 -14 -28 4 -15 16 -31 21
-22 7 2 -4 -4 -13 -15 -20 -11 -7 -19 -8 -19 -2 0 5 -7 10 -15 10 -15 0 -14
19 1 68 5 18 24 15 32 -7 6 -16 10 -14 25 18 9 20 11 28 4 18 -8 -9 -20 -17
-27 -17 -7 0 -10 3 -7 7 4 3 1 13 -6 21 -7 10 -8 13 -1 9 7 -4 14 4 17 20 5
26 4 26 -9 8 -8 -10 -14 -14 -14 -7 0 6 -6 9 -14 6 -20 -8 -16 59 4 68 10 4 7
7 -10 7 -20 1 -22 3 -10 11 12 8 11 10 -6 10 -12 0 -22 6 -21 13 1 32 -4 48
-13 42 -6 -3 -7 1 -4 9 3 9 9 14 13 11 4 -2 8 2 8 10 0 8 -4 12 -9 9 -4 -3 -8
2 -8 11 0 10 -5 14 -12 10 -7 -4 -4 1 6 9 11 9 15 16 9 16 -6 0 -10 11 -10 25
0 15 4 22 11 18 6 -3 3 2 -6 13 -15 18 -16 23 -3 47 8 15 10 25 6 22 -5 -3
-11 2 -15 10 -3 8 -2 15 3 15 5 0 7 14 5 31 -2 16 0 27 6 24 5 -3 7 6 4 21 -3
14 -1 31 3 38 4 7 1 4 -8 -5 -11 -12 -20 -14 -30 -8 -11 7 -11 9 4 9 10 0 17
8 17 18 0 10 5 23 12 30 8 8 8 12 1 12 -6 0 -13 11 -15 25 -3 13 -2 22 3 20
10 -7 17 16 11 37 -4 15 -6 16 -19 2 -9 -8 -18 -12 -22 -8 -3 4 0 9 7 11 6 3
12 10 12 17 0 15 44 58 52 51 2 -3 4 10 4 29 -1 22 -5 32 -13 29 -7 -3 -13
-10 -13 -17 0 -6 -5 -4 -11 4 -8 12 -9 11 -6 -5 2 -11 8 -19 15 -18 6 2 9 -4
5 -13 -4 -12 -8 -11 -21 7 -11 16 -12 26 -4 39 13 22 -1 45 -23 37 -13 -6 -15
-3 -9 16 4 12 11 25 16 28 5 3 5 15 0 29 -9 23 8 73 29 85 5 4 9 12 9 18 0 7
-7 3 -15 -7 -8 -11 -15 -15 -15 -9 0 7 6 18 13 25 6 7 13 22 15 33 2 18 2 18
-8 3 -6 -10 -15 -18 -21 -18 -5 0 -1 10 10 21 15 17 18 26 10 40 -8 15 -6 19
6 19 10 0 13 -5 9 -12 -5 -10 -3 -10 7 0 12 11 12 14 -1 22 -10 7 -11 10 -2
10 6 0 12 5 12 10 0 7 -7 7 -21 0 -19 -11 -20 -10 -8 12 7 13 14 28 15 33 0 6
2 16 2 23 1 6 7 12 13 12 8 0 8 -4 0 -14 -8 -10 -9 -16 -1 -21 6 -3 8 -11 5
-16 -4 -5 -1 -9 4 -9 14 0 14 13 -1 28 -9 9 -9 12 1 12 7 0 11 6 8 13 -2 6 0
25 4 40 7 24 6 27 -6 17 -8 -7 -13 -16 -10 -19 2 -4 -2 -8 -10 -8 -11 0 -12 4
-3 14 9 11 7 12 -7 7 -14 -6 -16 -3 -10 14 4 13 2 22 -4 22 -6 0 -11 4 -11 10
0 5 13 8 30 6 16 -2 28 0 25 4 -2 4 7 22 20 40 14 19 25 36 25 39 0 3 -7 -2
-14 -11 -7 -10 -17 -18 -21 -18 -4 0 -21 -10 -38 -22 l-32 -23 22 29 c13 15
20 32 17 37 -3 5 0 9 6 9 7 0 9 -7 6 -16 -5 -14 -4 -15 9 -4 14 11 13 14 -2
26 -17 13 -17 13 3 14 22 0 29 29 11 42 -9 5 -13 24 -16 66 -1 7 -5 10 -11 7
-6 -4 -7 1 -3 11 4 10 2 15 -3 11 -6 -3 -10 3 -11 13 -1 11 4 19 10 17 7 -1
11 6 9 16 -2 9 3 17 11 17 26 0 36 20 25 51 -7 21 -7 33 2 44 7 9 8 20 2 32
-5 10 -8 26 -7 36 2 9 -1 17 -7 17 -6 0 -8 6 -5 14 3 8 -1 20 -9 27 -11 9 -13
22 -8 53 4 23 6 50 5 61 -1 11 -3 25 -3 32 -1 7 -5 10 -9 8 -4 -3 -10 2 -13
11 -8 21 -8 26 2 21 4 -3 7 8 7 23 1 16 -3 26 -9 23 -5 -4 -7 1 -3 10 3 10 2
17 -4 17 -5 0 -14 11 -19 25 -5 14 -13 25 -17 24 -19 -3 -23 2 -13 20 9 17 7
19 -10 16 -13 -2 -20 2 -20 11 0 9 -5 12 -12 8 -10 -6 -10 -4 0 7 6 7 12 18
12 23 0 7 -3 7 -8 0 -5 -7 -14 -5 -27 9 -11 11 -14 17 -5 13 9 -5 8 -2 -2 7
-10 8 -14 18 -10 22 4 5 -2 5 -13 1 -16 -6 -18 -5 -7 5 6 7 12 18 12 23 0 6
-4 5 -9 -3 -5 -7 -14 -10 -20 -7 -6 4 -9 12 -6 17 3 5 -2 6 -11 2 -12 -4 -15
-3 -10 5 4 7 2 12 -3 12 -6 0 -11 -6 -11 -12 0 -10 -3 -9 -9 1 -5 8 -14 10
-22 5 -18 -11 -49 -13 -49 -2 0 13 -38 9 -44 -4 -4 -9 -5 -8 -5 2 2 33 -1 45
-9 33 -6 -10 -14 -9 -36 2 -24 13 -27 13 -17 1 9 -11 9 -16 0 -22 -8 -4 -9 -3
-5 4 8 13 -3 16 -43 12 -17 -1 -21 2 -16 12 5 7 -9 -5 -29 -27 -21 -22 -34
-33 -30 -25 4 8 -4 4 -17 -10 -13 -14 -31 -38 -39 -54 -8 -15 -25 -32 -38 -37
-13 -5 -20 -13 -17 -19 3 -5 2 -10 -3 -10 -4 0 -9 -21 -11 -47 -2 -47 -30 -96
-139 -245 -15 -20 -45 -63 -67 -95 -35 -51 -68 -92 -100 -127 -20 -21 -71
-101 -95 -149 -13 -26 -29 -52 -37 -58 -7 -6 -13 -17 -13 -24 0 -6 -13 -31
-30 -53 -16 -23 -30 -44 -30 -46 0 -3 -5 -17 -11 -33 -7 -19 -12 -24 -18 -14
-6 10 -10 9 -14 -4 -4 -10 -3 -14 4 -9 8 4 9 -1 4 -17 -9 -28 -81 -169 -95
-186 -6 -7 -10 -17 -10 -24 0 -6 -10 -25 -22 -42 -12 -17 -16 -27 -8 -22 8 5
4 -5 -8 -22 -12 -17 -22 -36 -22 -41 0 -6 -5 -14 -12 -18 -7 -5 -8 -2 -3 7 5
8 4 11 -1 6 -5 -5 -9 -12 -9 -15 -1 -17 -37 -72 -46 -72 -6 0 -8 -4 -4 -9 3
-5 1 -12 -4 -16 -11 -6 -17 -17 -95 -175 -32 -63 -64 -126 -72 -140 -8 -14
-22 -41 -31 -60 -8 -19 -24 -51 -35 -70 -32 -58 -70 -144 -71 -157 0 -7 -5
-13 -10 -13 -5 0 -7 -7 -3 -15 3 -8 1 -15 -5 -15 -6 0 -7 -4 -4 -10 3 -5 1
-10 -5 -10 -6 0 -9 -4 -5 -9 3 -5 0 -13 -6 -16 -5 -4 -8 -14 -5 -22 3 -8 1
-11 -4 -8 -9 6 -14 -8 -11 -27 0 -5 -3 -8 -7 -8 -5 0 -14 -12 -20 -26 -7 -14
-8 -23 -4 -20 5 3 -13 -40 -40 -94 -26 -55 -48 -105 -48 -111 0 -6 -7 -9 -15
-5 -8 3 -15 1 -15 -4 0 -6 -6 -10 -14 -10 -8 0 -17 -7 -20 -16 -11 -28 4 -30
24 -4 31 41 34 14 6 -45 -14 -31 -26 -64 -26 -74 0 -27 -10 -31 -36 -14 -22
14 -24 14 -24 -1 0 -9 6 -13 14 -10 25 9 27 -14 7 -63 -10 -26 -27 -69 -38
-95 -10 -28 -24 -48 -33 -48 -10 0 -11 -3 -4 -8 10 -6 -11 -54 -112 -252 -9
-19 -37 -63 -61 -97 -48 -68 -86 -134 -104 -175 -6 -16 -18 -28 -26 -28 -19 0
-56 46 -60 74 -5 36 -12 46 -36 55 -13 5 -31 24 -40 43 -19 40 -89 118 -107
118 -7 0 -33 17 -59 38 -25 22 -59 42 -76 46 -16 4 -63 23 -103 42 -41 19 -76
34 -79 34 -4 0 -73 29 -168 70 -11 5 -31 11 -45 14 -14 3 -65 14 -113 25 -49
11 -96 17 -104 14 -8 -3 -18 -1 -22 5 -12 19 -126 32 -310 35 -109 2 -114 3
-124 25 -8 16 -7 33 1 56 7 18 12 40 12 50 0 14 5 17 25 12 27 -7 77 23 123
74 12 14 29 32 37 41 8 9 24 45 36 80 11 35 25 68 30 74 5 5 9 23 9 41 0 29
20 50 42 46 4 -1 5 5 2 13 -4 9 3 18 18 24 13 5 38 26 54 46 16 20 43 53 61
73 17 21 48 56 67 78 21 25 36 52 36 67 0 15 9 34 20 45 11 10 33 47 51 82 48
100 66 130 73 123 4 -4 4 -1 1 8 -8 21 33 109 51 109 8 0 19 11 23 24 9 21 42
40 64 37 5 -1 6 3 3 8 -4 5 -2 12 4 16 5 3 10 18 10 33 0 15 6 36 13 48 6 12
27 50 46 84 30 58 65 99 84 100 15 0 52 46 70 83 9 22 17 57 17 79 0 26 6 46
18 57 10 9 22 34 28 56 5 22 15 39 21 38 6 -1 9 6 6 16 -5 19 19 75 43 99 10
9 14 38 14 90 -1 42 3 113 8 157 10 87 5 178 -9 183 -5 2 -9 21 -9 43 0 38 -4
47 -40 87 -8 10 -24 31 -34 47 -11 17 -25 33 -32 38 -7 4 -18 23 -24 42 -6 19
-18 35 -26 35 -9 0 -13 4 -10 9 3 5 -3 11 -13 14 -10 2 -27 21 -36 41 -9 20
-21 34 -25 31 -4 -3 -19 7 -34 22 -14 14 -59 37 -99 50 -39 13 -76 29 -82 36
-5 7 -19 13 -29 15 -23 4 -67 31 -83 52 -7 8 -13 11 -13 6 0 -5 -7 -3 -15 4
-12 10 -15 10 -15 -1 0 -12 -2 -12 -9 -1 -9 15 -42 13 -53 -3 -4 -6 -8 -2 -8
8 0 10 -5 15 -10 12 -6 -4 -7 -11 -4 -17 4 -6 2 -8 -4 -4 -5 3 -12 3 -15 -1
-2 -5 -2 -3 -1 4 2 6 -4 14 -12 17 -9 3 -12 1 -9 -4 4 -6 -11 -10 -37 -10 -69
1 -79 -2 -73 -19 5 -13 4 -13 -6 -4 -9 9 -17 9 -32 2 -14 -8 -18 -8 -13 0 5 8
0 8 -18 1 -14 -5 -26 -7 -26 -4 0 4 -8 0 -17 -7 -13 -11 -15 -11 -9 -1 6 10 0
9 -23 -2 -17 -9 -31 -14 -31 -11 0 2 -15 -4 -32 -15 -18 -11 -41 -20 -50 -20
-10 0 -18 -4 -18 -10 0 -5 -5 -10 -11 -10 -6 0 -31 -13 -56 -30 -24 -16 -48
-30 -52 -30 -5 0 -15 -7 -22 -17 -8 -9 -26 -21 -41 -28 -59 -24 -414 -367
-402 -387 4 -6 3 -8 -3 -5 -10 7 -87 -97 -133 -181 -29 -52 -50 -65 -50 -31 0
38 -40 109 -60 109 -10 0 -22 5 -25 10 -13 20 -92 51 -147 57 -33 3 -75 1
-100 -6 -37 -10 -77 -18 -112 -20 -4 -1 -6 -7 -3 -15 4 -9 0 -12 -13 -9 -12 3
-22 -3 -29 -16 -7 -12 -17 -21 -23 -21 -6 0 -19 -10 -29 -22 -11 -11 -19 -18
-19 -14 0 4 -13 -7 -30 -24 -16 -17 -30 -33 -30 -35 0 -3 -7 -13 -16 -22 -51
-57 -71 -88 -117 -183 -28 -58 -52 -110 -52 -117 0 -7 -6 -18 -13 -25 -6 -6
-12 -16 -12 -20 0 -13 -91 -200 -105 -218 -7 -8 -28 -44 -48 -80 -19 -36 -52
-96 -72 -135 -21 -38 -56 -104 -78 -145 -22 -41 -49 -86 -59 -100 -11 -14 -47
-63 -80 -110 -73 -103 -118 -159 -182 -225 -27 -27 -60 -66 -75 -85 -14 -19
-32 -41 -39 -48 -6 -8 -17 -23 -23 -34 -14 -27 -60 -78 -70 -78 -6 0 -19 39
-24 70 0 3 -3 10 -7 16 -4 6 -3 42 3 80 5 38 7 82 3 99 -9 41 -11 194 -2 208
4 7 1 21 -7 33 -8 12 -11 25 -8 28 4 4 8 14 9 22 1 9 0 13 -3 10 -12 -12 -32
28 -21 41 7 9 7 13 -2 13 -9 0 -9 4 1 17 8 9 9 14 4 11 -6 -4 -16 2 -23 12
-11 19 1 40 15 26 4 -3 1 -6 -6 -6 -7 0 -9 -5 -5 -11 4 -8 9 -7 15 2 4 7 4 18
-1 24 -11 14 -11 107 1 122 7 7 6 14 -2 19 -7 4 -9 3 -6 -3 3 -5 0 -10 -8 -10
-11 0 -12 4 -4 13 6 7 7 19 3 26 -6 10 -5 11 7 1 13 -10 16 -10 16 2 0 8 -4
15 -8 15 -4 0 -10 7 -13 16 -3 8 -2 12 4 9 6 -3 10 -2 10 4 0 5 -4 12 -8 15
-11 6 -9 43 3 53 4 5 5 2 1 -4 -4 -7 -2 -13 3 -13 13 0 14 13 4 24 -5 4 -8 13
-8 19 -1 7 -7 11 -14 9 -7 -1 -10 2 -6 7 3 6 12 8 21 4 12 -4 14 1 9 26 -3 21
-1 31 7 31 9 0 9 3 0 12 -16 16 -15 33 1 19 11 -8 13 -7 12 7 0 9 -5 24 -10
31 -5 10 -4 12 3 7 7 -4 12 -1 12 8 0 9 -6 16 -12 16 -9 0 -8 3 2 10 8 5 15
25 16 47 4 133 13 243 23 260 5 11 13 44 16 74 9 91 24 211 34 269 5 30 10 84
10 120 1 47 7 74 21 98 11 18 17 38 14 44 -4 7 -2 8 5 4 9 -6 11 11 8 66 -3
45 1 88 9 112 8 21 14 52 13 70 -2 111 7 173 29 201 19 23 22 37 17 65 -4 19
-11 39 -16 45 -5 5 -9 21 -9 36 0 14 -8 37 -19 50 -10 13 -28 45 -39 72 -12
26 -29 50 -39 53 -10 3 -34 13 -53 21 -47 22 -63 24 -57 8z m2822 -474 c-9 -8
-36 -10 -30 -2 2 4 11 8 20 8 8 0 13 -3 10 -6z m206 -601 c1 -41 -1 -84 -4
-95 -2 -11 -8 -40 -12 -65 -4 -25 -13 -54 -19 -65 -7 -11 -18 -36 -25 -56 -6
-20 -22 -41 -34 -48 -21 -11 -21 -11 -1 -8 21 4 21 3 8 -41 -8 -24 -22 -52
-33 -61 -10 -9 -22 -36 -26 -61 -7 -39 -38 -100 -56 -108 -4 -2 -5 -12 -2 -22
3 -12 0 -20 -6 -20 -7 0 -9 -5 -5 -12 5 -8 2 -9 -10 -5 -9 4 -15 3 -12 -1 6
-10 -32 -90 -51 -110 -7 -7 -13 -20 -13 -28 0 -18 -30 -66 -47 -77 -7 -4 -13
-15 -13 -23 0 -15 -39 -76 -52 -82 -5 -2 -8 -9 -8 -16 0 -19 -28 -72 -45 -86
-8 -7 -15 -21 -15 -31 0 -11 -9 -27 -20 -36 -11 -10 -20 -21 -20 -26 0 -5 -6
-14 -12 -22 -30 -30 -48 -56 -45 -63 1 -4 -7 -17 -18 -29 -34 -37 -45 -52 -45
-62 0 -5 -4 -11 -8 -13 -5 -1 -23 -29 -41 -61 -18 -32 -49 -78 -67 -103 -19
-24 -34 -51 -34 -59 0 -8 -5 -15 -11 -15 -12 0 -39 -25 -39 -37 0 -4 -14 -21
-30 -36 -17 -16 -28 -32 -25 -37 2 -4 -4 -15 -15 -25 -11 -10 -20 -21 -20 -25
0 -4 -17 -25 -37 -46 -21 -22 -46 -54 -55 -72 -11 -20 -25 -32 -38 -32 -12 0
-18 -4 -15 -10 3 -5 1 -10 -5 -10 -6 0 -10 -6 -9 -12 3 -28 -2 -40 -15 -35 -9
4 -17 -2 -21 -13 -4 -12 -12 -17 -22 -13 -10 4 -14 2 -10 -4 12 -19 -3 -39
-30 -41 -15 -1 -31 -8 -35 -16 -5 -8 -18 -11 -34 -8 -19 3 -25 1 -20 -7 4 -6
12 -8 18 -5 6 4 9 1 6 -6 -2 -8 -10 -16 -18 -18 -7 -3 -10 0 -6 7 5 7 -1 10
-16 8 -20 -2 -23 2 -19 28 1 17 9 42 17 57 8 15 16 35 18 45 12 61 20 84 27
89 5 3 9 12 9 20 0 8 -4 12 -10 9 -13 -8 -13 -3 0 31 8 19 8 29 0 34 -11 7 16
71 33 78 16 8 7 31 -10 26 -12 -4 -14 -3 -6 3 6 4 15 21 18 36 6 21 4 27 -9
27 -12 0 -7 10 17 33 19 17 32 37 30 44 -2 6 2 17 10 25 10 8 13 25 9 50 -3
26 -1 38 7 38 8 0 10 8 6 21 -10 29 3 69 21 69 8 0 12 5 9 10 -11 18 46 166
59 153 3 -3 6 -1 6 6 0 7 4 10 9 7 5 -4 8 5 6 19 -1 14 0 23 3 20 7 -7 31 48
25 58 -3 4 -11 3 -18 -3 -11 -9 -12 -7 -8 9 3 12 10 18 16 14 5 -3 7 -1 4 4
-4 6 0 25 9 42 8 17 12 36 8 42 -4 8 -3 9 4 5 7 -4 12 -2 12 4 0 7 14 32 30
57 17 24 30 52 30 62 0 10 23 46 50 80 28 34 50 66 50 71 0 4 18 30 40 56 22
27 40 54 40 60 0 7 8 15 17 18 15 6 15 8 3 16 -12 8 -12 10 3 16 9 3 17 10 17
15 0 4 14 22 30 39 17 17 30 35 30 40 0 5 7 15 15 23 8 8 16 34 17 56 3 38 9
46 63 89 33 25 69 56 80 68 11 12 40 32 65 44 42 21 75 48 137 112 14 15 41
31 60 34 19 4 37 12 40 20 2 7 18 16 34 19 36 8 86 33 95 47 16 25 33 -20 35
-92z m3254 20 c3 -5 1 -10 -4 -10 -6 0 -11 5 -11 10 0 6 2 10 4 10 3 0 8 -4
11 -10z m11 -62 c1 -7 5 -22 9 -33 4 -14 2 -12 -9 5 -10 16 -15 19 -16 10 0
-13 -1 -13 -10 0 -8 12 -10 12 -10 1 0 -8 -2 -12 -5 -9 -3 2 1 16 8 31 12 25
28 23 33 -5z m-571 -210 c-12 -113 -15 -151 -29 -388 -22 -372 -10 -862 22
-904 5 -6 10 -49 11 -96 1 -47 6 -122 10 -168 4 -46 3 -86 -2 -89 -4 -3 -2
-12 6 -21 12 -13 17 -61 22 -202 6 -171 5 -187 -12 -202 -10 -8 -25 -15 -33
-16 -8 0 -53 -21 -100 -46 -46 -26 -91 -44 -99 -41 -9 3 -12 3 -8 -1 8 -8
-117 -74 -140 -74 -8 0 -29 -11 -46 -24 -18 -13 -50 -31 -72 -41 -22 -9 -52
-23 -67 -31 -14 -8 -32 -14 -40 -14 -7 0 -24 -9 -38 -20 -14 -11 -33 -20 -42
-20 -10 0 -18 -4 -18 -8 0 -5 -19 -14 -42 -21 -24 -7 -53 -19 -65 -27 -12 -8
-39 -17 -60 -20 -20 -3 -45 -15 -55 -27 -10 -11 -21 -17 -24 -14 -4 4 -18 -3
-32 -13 -13 -11 -33 -20 -43 -20 -11 0 -19 -4 -19 -8 0 -5 -11 -14 -24 -22
-13 -7 -26 -20 -29 -30 -3 -11 -25 -24 -58 -35 -30 -9 -61 -19 -69 -22 -22 -9
-21 -9 -62 -17 -21 -5 -36 -12 -33 -16 3 -4 -4 -10 -14 -13 -16 -4 -19 0 -16
24 5 37 12 49 31 49 8 0 14 7 14 15 0 8 4 15 8 15 8 0 32 53 38 85 5 26 37 85
45 85 4 0 10 12 13 26 4 15 14 33 21 41 8 8 15 23 15 34 0 11 6 22 14 25 8 3
17 20 20 39 4 18 13 38 21 45 8 7 15 23 15 36 0 12 4 25 10 29 5 3 7 11 4 18
-2 7 4 21 15 31 11 10 25 35 31 55 13 40 20 58 44 114 9 21 16 56 16 77 0 22
9 57 20 77 11 21 20 48 20 60 0 13 5 23 10 23 6 0 9 3 8 8 -1 4 3 17 10 30 8
13 9 22 3 22 -7 0 -7 9 1 25 6 14 15 25 20 25 5 0 6 5 3 11 -22 35 -14 66 40
149 30 47 59 90 63 96 9 10 41 120 46 159 3 24 51 123 70 145 7 8 24 35 37 60
13 25 30 53 37 62 8 10 12 26 9 37 -2 11 1 28 8 38 7 10 16 29 20 43 4 14 18
39 31 56 13 17 24 38 24 47 0 8 3 17 8 19 15 6 71 103 74 128 4 30 56 140 67
140 4 0 7 10 8 22 1 11 6 24 12 27 5 4 13 18 16 34 4 15 11 24 16 21 5 -3 9 3
9 12 0 9 11 32 25 50 14 18 25 39 25 48 0 8 9 17 19 21 36 11 72 47 98 98 14
29 30 55 35 58 5 3 9 10 9 15 0 10 36 54 44 54 3 0 3 -24 0 -52z m-6160 -387
c1 -11 -3 -17 -8 -14 -5 3 -1 -6 8 -20 14 -21 15 -35 8 -69 -6 -28 -6 -52 0
-66 8 -18 6 -30 -8 -54 -17 -29 -17 -32 -1 -43 19 -14 22 -30 4 -19 -10 6 -10
4 -2 -7 17 -23 17 -158 0 -184 -8 -13 -12 -25 -9 -28 7 -8 10 -137 2 -137 -4
0 -3 -117 2 -147 1 -4 1 -10 -1 -13 -8 -23 -8 -50 1 -50 7 0 8 -5 2 -12 -8
-12 -9 -55 -2 -83 1 -5 -1 -18 -6 -28 -4 -10 -2 -23 5 -32 6 -8 8 -19 4 -26
-4 -7 -9 -30 -10 -53 -7 -88 -11 -113 -17 -123 -4 -7 -3 -14 2 -18 6 -3 8 -11
5 -19 -3 -7 0 -25 6 -40 5 -15 7 -33 3 -39 -4 -7 -8 -14 -9 -17 0 -3 -3 -12
-6 -20 -22 -65 -27 -84 -23 -89 3 -2 11 4 19 14 12 16 14 12 18 -40 5 -64 -5
-128 -21 -133 -6 -2 -11 -10 -11 -17 0 -9 -10 -12 -31 -10 -18 3 -29 2 -25 -2
11 -11 -16 -33 -40 -33 -14 0 -25 -8 -29 -20 -7 -21 -35 -28 -35 -9 0 6 -6 9
-12 6 -7 -2 -12 -10 -11 -18 2 -14 -124 -102 -141 -99 -5 1 -12 -2 -15 -7 -7
-9 -65 -38 -94 -47 -10 -3 -15 -10 -12 -16 5 -9 -15 -15 -37 -11 -5 0 -8 -3
-8 -9 0 -5 -7 -10 -16 -10 -9 0 -28 -6 -42 -14 -45 -24 -139 -66 -146 -66 -4
0 -26 -12 -49 -27 -23 -16 -49 -29 -57 -31 -8 -1 -32 -10 -53 -19 -43 -18 -58
-12 -34 15 10 10 17 24 17 30 0 6 7 9 17 5 11 -5 14 -3 8 6 -9 15 12 88 32
112 7 8 13 21 13 28 0 7 9 24 20 38 11 14 20 38 20 52 0 15 9 37 19 48 11 12
17 23 15 26 -5 5 21 91 34 111 8 12 9 18 11 45 0 11 9 22 19 25 20 7 62 90 62
126 1 14 7 36 14 49 7 13 11 32 9 42 -3 11 3 22 16 28 15 9 21 21 21 46 0 18
5 37 11 41 6 3 8 17 5 30 -8 31 9 62 83 153 57 68 66 86 62 118 -2 14 24 64
56 109 45 63 113 203 113 233 0 18 9 40 20 51 11 11 22 31 26 45 3 14 9 23 13
20 3 -4 10 15 16 42 9 39 14 47 30 45 13 -2 16 0 8 5 -15 10 -19 91 -5 123 5
14 23 42 39 62 17 20 38 62 48 93 9 31 23 59 30 61 7 3 11 14 8 27 -5 18 -3
20 7 10 8 -7 14 -22 15 -32z m6730 -1201 c3 -5 1 -10 -4 -10 -6 0 -11 5 -11
10 0 6 2 10 4 10 3 0 8 -4 11 -10z m229 -65 c-6 -16 -24 -21 -24 -7 0 11 11
22 21 22 5 0 6 -7 3 -15z m-6964 -125 c0 -5 -5 -10 -11 -10 -5 0 -7 5 -4 10 3
6 8 10 11 10 2 0 4 -4 4 -10z m7550 -105 c-7 -9 -15 -13 -19 -10 -3 3 1 10 9
15 21 14 24 12 10 -5z m-345 -105 c-3 -5 -1 -10 5 -10 6 0 8 -5 4 -11 -4 -8
-9 -7 -15 2 -7 12 -3 29 7 29 3 0 2 -4 -1 -10z m-215 -185 c0 -2 -9 -3 -19 -2
-11 0 -18 5 -15 9 4 6 34 0 34 -7z m-10 -21 c0 -8 -19 -13 -24 -6 -3 5 1 9 9
9 8 0 15 -2 15 -3z m-4824 -157 c27 -18 61 -39 77 -46 15 -8 27 -18 27 -23 0
-4 7 -8 15 -8 9 0 29 -13 45 -30 19 -19 38 -29 57 -28 15 0 48 -7 73 -17 41
-15 222 -32 305 -27 17 1 57 2 90 2 33 0 84 5 112 11 36 7 63 7 85 0 18 -5 74
-22 123 -37 143 -42 209 -65 225 -79 8 -7 38 -24 65 -39 129 -66 218 -153 246
-239 14 -47 21 -295 7 -303 -5 -3 -6 -9 -3 -14 7 -12 -30 -19 -83 -16 -55 4
-92 -12 -112 -48 -12 -24 -11 -28 13 -54 32 -33 33 -39 10 -65 -17 -18 -17
-20 3 -36 11 -9 24 -28 27 -42 4 -14 18 -31 32 -39 29 -15 26 -41 -7 -75 -24
-25 -68 -93 -68 -105 0 -6 -4 -10 -9 -10 -5 0 -11 -10 -15 -23 -3 -13 -16 -35
-29 -49 -13 -13 -21 -30 -19 -36 2 -7 -1 -12 -7 -12 -6 0 -11 -6 -11 -13 0 -8
-9 -22 -20 -32 -10 -9 -29 -36 -41 -59 -11 -22 -28 -48 -38 -56 -101 -93 -247
-201 -288 -214 -13 -4 -23 -11 -23 -15 0 -4 -18 -17 -39 -29 -21 -12 -41 -29
-45 -37 -3 -8 -12 -15 -21 -15 -9 0 -41 -16 -72 -36 -31 -20 -78 -43 -104 -50
-26 -8 -60 -21 -76 -29 -15 -8 -33 -15 -40 -15 -7 0 -27 -8 -45 -18 -42 -24
-116 -44 -170 -47 -24 -1 -50 -5 -58 -8 -16 -6 -131 -18 -195 -21 -22 -1 -54
-9 -72 -19 -18 -9 -50 -17 -72 -17 -31 0 -46 -6 -68 -29 -31 -33 -70 -45 -65
-21 2 8 4 28 4 45 1 16 7 39 14 50 7 11 16 47 19 80 4 33 9 74 12 90 3 17 10
64 17 105 6 41 17 85 24 97 6 12 12 50 12 85 0 35 5 69 11 75 16 16 16 117 0
137 -9 11 -11 29 -6 63 4 27 8 84 10 129 1 44 7 90 13 101 7 13 11 85 11 189
-1 194 4 273 26 434 9 63 17 142 19 175 2 33 8 78 14 100 11 40 14 130 8 238
-4 63 2 107 14 107 4 0 30 -15 56 -33z m4641 -92 c0 -6 -6 -12 -12 -12 -6 0
-12 6 -12 12 0 6 6 12 12 12 6 0 12 -6 12 -12z m-554 -134 c-2 -6 2 -11 8 -11
5 0 7 -6 3 -12 -10 -16 -13 -50 -6 -62 2 -4 6 -33 9 -64 2 -30 7 -62 12 -71 4
-9 7 -31 5 -49 -1 -18 2 -35 7 -38 5 -3 6 -16 3 -29 -4 -16 2 -37 16 -60 15
-25 22 -53 24 -99 1 -47 7 -70 20 -85 11 -12 14 -21 7 -21 -7 0 -9 -9 -7 -22
3 -13 8 -88 10 -168 4 -117 8 -147 21 -156 11 -8 12 -14 6 -19 -13 -7 -15 -42
-2 -47 4 -1 11 -32 14 -68 3 -36 8 -72 10 -80 3 -8 8 -34 11 -58 5 -33 4 -42
-6 -36 -7 5 -21 9 -30 9 -10 1 -26 8 -35 17 -26 22 -47 29 -120 44 -18 3 -30
10 -27 15 3 5 -18 9 -45 9 -28 0 -51 4 -51 9 0 5 -15 13 -32 16 -18 4 -38 11
-43 16 -6 4 -22 9 -35 11 -14 2 -54 18 -90 35 -106 51 -142 64 -162 57 -10 -3
-18 0 -18 6 0 6 -4 9 -9 6 -5 -3 -19 3 -32 13 -32 25 -66 35 -111 32 -20 -1
-39 3 -43 9 -3 5 -16 10 -27 10 -12 0 -41 9 -65 21 -24 11 -50 22 -59 23 -8 1
-19 7 -22 13 -4 6 -29 14 -57 17 -55 8 -74 23 -70 61 2 14 -2 25 -8 25 -8 0
-8 3 -2 8 6 4 11 33 12 65 1 32 7 64 13 72 7 9 8 15 1 19 -11 7 6 56 19 56 4
0 13 14 20 30 16 37 89 102 108 95 7 -2 11 -1 8 3 -2 4 1 14 8 22 15 19 72 60
84 60 6 0 36 18 69 39 32 22 86 52 121 67 34 14 62 31 62 35 0 5 4 9 9 9 5 0
22 5 38 12 15 6 33 12 38 13 6 2 42 21 81 44 39 22 76 41 83 41 6 0 31 10 54
22 23 12 63 30 89 39 27 10 55 24 63 32 16 17 51 15 48 -2z m-6163 -122 c10
-47 18 -97 18 -111 0 -14 10 -56 22 -92 12 -37 20 -81 18 -97 -3 -16 -1 -32 4
-35 5 -3 6 -10 3 -15 -4 -5 1 -9 9 -9 17 0 22 -36 8 -57 -6 -10 -14 -9 -36 2
-16 8 -39 15 -52 15 -12 0 -27 7 -32 16 -7 13 -23 20 -54 23 -4 1 -14 14 -23
31 -9 17 -27 33 -42 36 -35 9 -93 43 -93 55 0 5 -6 9 -14 9 -44 0 -23 98 27
125 18 9 41 31 52 49 12 18 34 35 53 41 17 5 32 13 32 18 0 14 64 87 74 84 5
-2 17 -41 26 -88z m6694 -64 c-4 -8 -11 -12 -16 -9 -6 4 -5 10 3 15 19 12 19
11 13 -6z m44 -465 c-7 -11 -15 -15 -17 -9 -2 6 3 15 10 20 20 12 21 11 7 -11z
m30 -211 c-3 -8 -7 -3 -11 10 -4 17 -3 21 5 13 5 -5 8 -16 6 -23z m6 -27 c3
-5 -1 -9 -9 -9 -8 0 -12 4 -9 9 3 4 7 8 9 8 2 0 6 -4 9 -8z m-1794 -402 c0 -5
-5 -10 -11 -10 -5 0 -7 5 -4 10 3 6 8 10 11 10 2 0 4 -4 4 -10z m19 -29 c10
-7 7 -9 -12 -8 -14 1 -23 5 -20 10 6 9 15 9 32 -2z m132 -91 c13 -11 29 -24
35 -29 7 -5 15 -7 20 -3 4 4 4 1 0 -6 -6 -9 -18 -4 -47 19 -35 28 -45 39 -36
39 2 0 15 -9 28 -20z m104 -60 c-3 -5 -12 -10 -18 -10 -7 0 -6 4 3 10 19 12
23 12 15 0z m-7208 -446 c-3 -3 -12 -4 -19 -1 -8 3 -5 6 6 6 11 1 17 -2 13 -5z
m5438 -80 c-9 -7 -14 -17 -11 -22 9 -15 -22 -8 -37 8 -9 11 -8 11 7 0 18 -13
19 -13 14 2 -8 20 -5 24 22 24 19 0 20 -1 5 -12z m-5625 -72 c0 -13 -12 -22
-22 -16 -10 6 -1 24 13 24 5 0 9 -4 9 -8z m5485 -55 c1 -12 -36 -44 -44 -40
-3 2 -6 10 -7 18 -2 12 1 14 11 5 8 -7 15 -7 19 -1 3 5 0 12 -6 14 -8 3 -6 6
5 6 12 1 16 6 11 14 -4 7 -3 9 2 4 5 -5 9 -14 9 -20z m-5629 -12 c-3 -8 -1
-15 4 -15 6 0 10 -5 10 -11 0 -8 -4 -8 -14 1 -13 10 -12 40 1 40 3 0 3 -7 -1
-15z m3294 -107 c0 -4 -4 -8 -9 -8 -6 0 -12 4 -15 8 -3 5 1 9 9 9 8 0 15 -4
15 -9z"/>
<path d="M7927 10483 c-10 -9 -9 -23 1 -23 5 0 9 7 9 15 0 17 -1 18 -10 8z"/>
<path d="M7915 10440 c-3 -5 -2 -10 4 -10 5 0 13 5 16 10 3 6 2 10 -4 10 -5 0
-13 -4 -16 -10z"/>
<path d="M7931 10114 c0 -11 3 -14 6 -6 3 7 2 16 -1 19 -3 4 -6 -2 -5 -13z"/>
<path d="M7948 9973 c7 -3 16 -2 19 1 4 3 -2 6 -13 5 -11 0 -14 -3 -6 -6z"/>
<path d="M7829 9838 c0 -2 -2 -14 -5 -27 -4 -21 -2 -22 12 -10 10 8 12 15 5
17 -6 2 -9 8 -5 13 3 5 3 9 0 9 -3 0 -6 -1 -7 -2z"/>
<path d="M10645 8970 c-3 -6 1 -7 9 -4 18 7 21 14 7 14 -6 0 -13 -4 -16 -10z"/>
<path d="M5425 9580 c3 -5 8 -10 11 -10 2 0 4 5 4 10 0 6 -5 10 -11 10 -5 0
-7 -4 -4 -10z"/>
<path d="M5385 9520 c4 -6 11 -8 16 -5 14 9 11 15 -7 15 -8 0 -12 -5 -9 -10z"/>
<path d="M8820 8340 c0 -5 7 -7 15 -4 8 4 15 8 15 10 0 2 -7 4 -15 4 -8 0 -15
-4 -15 -10z"/>
<path d="M9005 8220 c-3 -5 1 -10 10 -10 9 0 13 5 10 10 -3 6 -8 10 -10 10 -2
0 -7 -4 -10 -10z"/>
<path d="M9076 8151 c-3 -5 1 -11 9 -15 8 -3 15 -1 15 4 0 13 -18 22 -24 11z"/>
<path d="M9060 8066 c0 -9 5 -16 10 -16 6 0 10 4 10 9 0 6 -4 13 -10 16 -5 3
-10 -1 -10 -9z"/>
<path d="M9111 8004 c0 -11 3 -14 6 -6 3 7 2 16 -1 19 -3 4 -6 -2 -5 -13z"/>
<path d="M8811 7881 c-8 -5 -9 -11 -3 -15 5 -3 12 1 16 9 6 17 6 18 -13 6z"/>
<path d="M6216 12918 c5 -8 2 -9 -11 -4 -16 6 -16 4 -4 -10 13 -16 12 -16 -18
0 -28 14 -32 14 -27 1 4 -8 12 -15 19 -15 8 0 12 -8 10 -20 -2 -11 -1 -19 3
-19 19 3 33 -2 27 -10 -3 -5 -1 -12 4 -16 6 -3 8 -12 5 -20 -6 -14 33 -41 44
-31 3 3 1 6 -4 6 -5 0 -9 17 -9 38 1 20 -6 46 -15 57 -14 18 -14 19 3 6 10 -8
17 -9 17 -3 0 6 -9 13 -19 17 -12 4 -18 12 -14 21 3 7 0 14 -7 14 -6 0 -8 -5
-4 -12z m34 -118 c0 -5 -2 -10 -4 -10 -3 0 -8 5 -11 10 -3 6 -1 10 4 10 6 0
11 -4 11 -10z"/>
<path d="M5705 12760 c-3 -5 -1 -10 4 -10 6 0 11 5 11 10 0 6 -2 10 -4 10 -3
0 -8 -4 -11 -10z"/>
<path d="M5660 12717 c-10 -17 -10 -19 7 -13 17 6 17 5 1 -8 -20 -14 -25 -56
-7 -56 5 0 7 5 4 10 -3 6 -2 10 4 10 6 0 13 11 17 25 3 14 9 25 13 25 4 0 8 6
8 14 0 21 -33 15 -47 -7z"/>
<path d="M5619 12645 c-1 -3 -2 -11 -3 -17 -1 -7 -7 -12 -12 -11 -6 1 -11 -5
-11 -13 0 -19 13 -18 21 2 3 9 11 12 18 8 10 -6 11 -5 1 8 -7 8 -10 18 -6 21
3 4 3 7 0 7 -4 0 -8 -2 -8 -5z"/>
<path d="M5630 12580 c0 -5 5 -10 11 -10 5 0 7 5 4 10 -3 6 -8 10 -11 10 -2 0
-4 -4 -4 -10z"/>
<path d="M5590 12569 c0 -5 5 -7 10 -4 6 3 10 8 10 11 0 2 -4 4 -10 4 -5 0
-10 -5 -10 -11z"/>
<path d="M5582 12517 c-8 -10 -6 -13 7 -13 11 0 17 6 14 13 -3 7 -6 13 -8 13
-1 0 -7 -6 -13 -13z"/>
<path d="M5565 12460 c-4 -6 -11 -7 -17 -4 -7 4 -8 2 -4 -5 4 -6 11 -9 16 -6
4 3 10 0 12 -7 3 -7 7 -2 10 10 6 22 -6 30 -17 12z"/>
<path d="M5541 12406 c-8 -10 -9 -16 -1 -21 5 -3 13 1 16 10 9 22 -1 29 -15
11z"/>
<path d="M5504 12333 c8 -15 -3 -45 -15 -37 -5 3 -6 -2 -3 -10 3 -9 11 -16 17
-16 6 0 7 3 4 6 -3 4 -2 16 4 26 8 15 8 23 -2 32 -9 8 -10 8 -5 -1z"/>
<path d="M8268 12243 c7 -3 16 -2 19 1 4 3 -2 6 -13 5 -11 0 -14 -3 -6 -6z"/>
<path d="M5480 12220 c0 -5 5 -10 10 -10 6 0 10 5 10 10 0 6 -4 10 -10 10 -5
0 -10 -4 -10 -10z"/>
<path d="M8090 12209 c0 -5 5 -7 10 -4 6 3 10 8 10 11 0 2 -4 4 -10 4 -5 0
-10 -5 -10 -11z"/>
<path d="M8156 12205 c6 -14 -6 -20 -29 -16 -5 1 -6 -3 -2 -9 3 -5 2 -10 -3
-10 -5 0 -9 -16 -10 -35 -1 -19 3 -35 8 -35 8 0 26 57 22 72 -1 4 5 5 13 2 11
-5 15 1 15 20 0 14 -4 26 -10 26 -5 0 -7 -7 -4 -15z"/>
<path d="M5440 12135 c-1 -5 -2 -13 -1 -17 0 -5 -3 -8 -9 -8 -5 0 -7 -7 -3
-16 9 -23 26 -1 20 27 -2 13 -5 20 -7 14z"/>
<path d="M5411 12044 c0 -11 3 -14 6 -6 3 7 2 16 -1 19 -3 4 -6 -2 -5 -13z"/>
<path d="M6165 12049 c-4 -6 -5 -12 -2 -15 2 -3 7 2 10 11 7 17 1 20 -8 4z"/>
<path d="M11494 12040 c0 -13 4 -16 10 -10 7 7 7 13 0 20 -6 6 -10 3 -10 -10z"/>
<path d="M9620 12030 c0 -5 5 -10 11 -10 5 0 7 5 4 10 -3 6 -8 10 -11 10 -2 0
-4 -4 -4 -10z"/>
<path d="M5390 12020 c0 -5 5 -10 11 -10 5 0 7 5 4 10 -3 6 -8 10 -11 10 -2 0
-4 -4 -4 -10z"/>
<path d="M6156 11993 c-6 -14 -5 -15 5 -6 7 7 10 15 7 18 -3 3 -9 -2 -12 -12z"/>
<path d="M9678 11983 c6 -2 12 -16 12 -29 0 -13 -6 -24 -12 -24 -10 0 -9 -3 1
-9 8 -5 10 -14 6 -22 -6 -11 -5 -11 4 -3 14 13 18 65 7 83 -4 6 -13 11 -19 10
-9 0 -9 -2 1 -6z"/>
<path d="M9713 11968 c1 -10 6 -18 12 -18 5 0 3 -5 -5 -10 -8 -5 -10 -10 -5
-10 6 1 19 8 30 17 18 14 18 15 1 9 -14 -5 -17 -2 -14 12 3 11 0 19 -8 19 -7
0 -12 -9 -11 -19z"/>
<path d="M9640 11964 c0 -8 5 -12 10 -9 6 4 8 11 5 16 -9 14 -15 11 -15 -7z"/>
<path d="M5366 11925 c-11 -8 -14 -15 -7 -15 7 0 9 -4 6 -10 -3 -5 -2 -10 3
-10 5 0 12 11 14 25 3 14 5 25 4 25 0 0 -10 -7 -20 -15z"/>
<path d="M11420 11915 c7 -8 17 -15 22 -15 5 0 3 7 -6 15 -8 8 -18 15 -22 15
-3 0 -1 -7 6 -15z"/>
<path d="M6163 11905 c0 -8 4 -15 9 -15 4 0 8 4 8 9 0 6 -4 12 -8 15 -5 3 -9
-1 -9 -9z"/>
<path d="M5335 11860 c-3 -5 -1 -10 5 -10 6 0 8 -5 4 -12 -4 -7 -3 -8 4 -4 6
4 9 13 5 21 -6 18 -10 19 -18 5z"/>
<path d="M5313 11824 c3 -3 2 -17 -3 -30 -6 -16 -5 -25 3 -30 7 -4 9 -4 5 1
-4 4 -1 14 7 21 15 15 10 44 -8 44 -6 0 -8 -3 -4 -6z"/>
<path d="M7826 11821 c-4 -5 -2 -12 3 -15 5 -4 12 -2 15 3 4 5 2 12 -3 15 -5
4 -12 2 -15 -3z"/>
<path d="M7800 11790 c0 -5 5 -10 10 -10 6 0 10 5 10 10 0 6 -4 10 -10 10 -5
0 -10 -4 -10 -10z"/>
<path d="M9682 11760 c0 -14 2 -19 5 -12 2 6 2 18 0 25 -3 6 -5 1 -5 -13z"/>
<path d="M7795 11760 c-3 -5 -2 -10 4 -10 5 0 13 5 16 10 3 6 2 10 -4 10 -5 0
-13 -4 -16 -10z"/>
<path d="M5285 11740 c-3 -5 -3 -10 2 -10 4 0 1 -5 -7 -10 -13 -9 -13 -10 0
-10 8 0 21 9 28 20 10 17 10 20 -2 20 -8 0 -18 -4 -21 -10z"/>
<path d="M12334 11729 c-3 -6 -2 -15 4 -21 6 -6 12 -6 17 3 6 8 4 10 -5 4 -10
-6 -12 -4 -7 8 7 19 2 23 -9 6z"/>
<path d="M9670 11640 c0 -5 5 -10 11 -10 5 0 7 5 4 10 -3 6 -8 10 -11 10 -2 0
-4 -4 -4 -10z"/>
<path d="M6129 11613 c-8 -9 -9 -14 -2 -10 6 4 13 1 16 -5 4 -10 7 -10 18 0
12 11 12 13 -1 10 -8 -2 -14 3 -12 10 3 17 -3 15 -19 -5z"/>
<path d="M12346 11582 c-3 -5 1 -9 9 -9 8 0 12 4 9 9 -3 4 -7 8 -9 8 -2 0 -6
-4 -9 -8z"/>
<path d="M6131 11556 c-8 -9 -8 -16 -2 -20 5 -4 12 -2 16 4 3 5 3 10 -2 10 -4
0 -1 5 7 10 8 5 10 10 4 10 -6 0 -17 -6 -23 -14z"/>
<path d="M12320 11560 c-12 -32 -8 -50 10 -50 11 0 20 5 20 10 0 6 -4 10 -9
10 -5 0 -12 8 -14 18 -3 9 -6 15 -7 12z"/>
<path d="M12350 11550 c-9 -6 -10 -10 -3 -10 6 0 15 5 18 10 8 12 4 12 -15 0z"/>
<path d="M6103 11525 c4 -4 1 -18 -7 -31 -15 -22 -12 -34 8 -34 6 0 4 5 -4 10
-13 8 -12 10 3 10 10 0 16 4 13 9 -4 5 -1 11 5 13 7 2 4 10 -7 18 -11 8 -16
10 -11 5z"/>
<path d="M5115 11401 c-3 -5 -2 -12 3 -15 5 -3 9 1 9 9 0 17 -3 19 -12 6z"/>
<path d="M6910 11394 c0 -9 -5 -12 -12 -8 -7 4 -8 3 -4 -5 6 -9 11 -9 22 0 7
6 11 15 8 20 -8 14 -14 11 -14 -7z"/>
<path d="M6070 11379 c0 -5 5 -7 10 -4 6 3 10 8 10 11 0 2 -4 4 -10 4 -5 0
-10 -5 -10 -11z"/>
<path d="M5110 11350 c0 -19 3 -21 12 -12 9 9 9 15 0 24 -9 9 -12 7 -12 -12z"/>
<path d="M9606 11327 c3 -10 9 -15 12 -12 3 3 0 11 -7 18 -10 9 -11 8 -5 -6z"/>
<path d="M6852 11305 c0 -16 2 -22 5 -12 2 9 2 23 0 30 -3 6 -5 -1 -5 -18z"/>
<path d="M12277 11316 c-4 -10 -1 -13 9 -9 15 6 19 23 5 23 -5 0 -11 -7 -14
-14z"/>
<path d="M5075 11309 c-4 -6 -5 -12 -2 -15 2 -3 7 2 10 11 7 17 1 20 -8 4z"/>
<path d="M12326 11283 c-6 -14 -5 -15 5 -6 7 7 10 15 7 18 -3 3 -9 -2 -12 -12z"/>
<path d="M5053 11255 c0 -8 4 -12 9 -9 4 3 8 9 8 15 0 5 -4 9 -8 9 -5 0 -9 -7
-9 -15z"/>
<path d="M4991 11148 c0 -9 -7 -19 -13 -21 -10 -4 -10 -6 0 -6 6 -1 12 -6 12
-12 0 -5 -4 -7 -10 -4 -5 3 -10 1 -10 -4 0 -13 10 -14 25 -3 6 4 8 20 4 37 -4
17 -7 23 -8 13z"/>
<path d="M6714 11148 c-4 -7 -4 -10 1 -6 4 4 14 3 22 -4 11 -8 12 -7 7 6 -7
19 -20 21 -30 4z"/>
<path d="M9506 11108 c-3 -13 -6 -32 -6 -42 0 -29 16 -7 23 32 7 36 -7 44 -17
10z"/>
<path d="M4970 11058 c0 -7 -3 -31 -7 -53 -3 -22 -2 -37 2 -33 12 11 23 98 13
98 -4 0 -8 -6 -8 -12z"/>
<path d="M9520 11020 c-12 -8 -12 -10 -1 -10 11 0 11 -3 0 -17 -11 -15 -11
-16 1 -6 8 7 15 20 16 28 3 18 3 17 -16 5z"/>
<path d="M4914 10997 c3 -11 0 -20 -9 -23 -8 -4 -15 -10 -15 -16 0 -5 6 -6 13
-3 6 4 5 1 -4 -7 -14 -12 -14 -14 0 -30 16 -16 17 -15 19 9 1 15 6 29 11 33 5
3 3 16 -6 30 -8 14 -12 17 -9 7z"/>
<path d="M12234 10958 c-3 -4 2 -8 10 -8 8 0 17 4 20 8 3 5 -2 9 -10 9 -8 0
-17 -4 -20 -9z"/>
<path d="M6690 10899 c0 -5 5 -7 10 -4 6 3 10 8 10 11 0 2 -4 4 -10 4 -5 0
-10 -5 -10 -11z"/>
<path d="M9451 10891 c-8 -5 -9 -11 -3 -15 5 -3 12 1 16 9 6 17 6 18 -13 6z"/>
<path d="M6566 10861 c-3 -5 1 -11 9 -14 9 -4 12 -1 8 9 -6 16 -10 17 -17 5z"/>
<path d="M9400 10865 c0 -7 30 -13 34 -7 3 4 -4 9 -15 9 -10 1 -19 0 -19 -2z"/>
<path d="M6496 10835 c-11 -8 -16 -15 -10 -15 5 0 2 -5 -6 -10 -8 -5 -10 -10
-4 -10 7 0 19 11 28 25 19 29 18 30 -8 10z"/>
<path d="M6540 10793 c0 -5 5 -15 10 -23 8 -12 10 -11 10 8 0 12 -4 22 -10 22
-5 0 -10 -3 -10 -7z"/>
<path d="M6500 10686 c0 -14 5 -26 10 -26 6 0 10 9 10 19 0 11 -4 23 -10 26
-6 4 -10 -5 -10 -19z"/>
<path d="M9207 10663 c-4 -3 -7 -11 -7 -17 0 -6 5 -5 12 2 6 6 9 14 7 17 -3 3
-9 2 -12 -2z"/>
<path d="M4724 10606 c-10 -8 -17 -17 -14 -19 3 -3 14 1 24 9 11 7 17 16 15
19 -3 3 -14 -2 -25 -9z"/>
<path d="M15241 10596 c-7 -8 -8 -17 -3 -20 6 -3 13 1 16 10 9 23 2 28 -13 10z"/>
<path d="M15273 10591 c0 -11 5 -18 9 -15 4 3 5 11 1 19 -7 21 -12 19 -10 -4z"/>
<path d="M14765 10589 c-4 -6 -5 -12 -2 -15 2 -3 7 2 10 11 7 17 1 20 -8 4z"/>
<path d="M7176 10545 c-3 -8 -1 -15 4 -15 6 0 10 7 10 15 0 8 -2 15 -4 15 -2
0 -6 -7 -10 -15z"/>
<path d="M15240 10485 c-7 -8 -11 -15 -9 -16 32 -6 39 -5 39 6 0 21 -16 26
-30 10z"/>
<path d="M9116 10478 c3 -5 10 -6 15 -3 13 9 11 12 -6 12 -8 0 -12 -4 -9 -9z"/>
<path d="M10600 10480 c0 -5 5 -10 10 -10 6 0 10 5 10 10 0 6 -4 10 -10 10 -5
0 -10 -4 -10 -10z"/>
<path d="M10560 10449 c0 -5 4 -8 9 -5 5 3 12 -2 15 -11 6 -15 8 -15 16 -3 6
8 10 20 10 25 0 6 -4 4 -9 -4 -6 -9 -11 -10 -15 -2 -9 14 -26 14 -26 0z"/>
<path d="M9130 10450 c-8 -26 -7 -41 2 -32 6 6 8 16 5 24 -3 7 -6 11 -7 8z"/>
<path d="M9090 10414 c0 -8 5 -12 10 -9 6 4 8 11 5 16 -9 14 -15 11 -15 -7z"/>
<path d="M10559 10423 c-1 -4 -1 -11 0 -15 0 -5 -3 -8 -7 -8 -5 0 -9 -7 -9
-15 0 -18 7 -18 31 0 17 13 17 15 2 30 -9 9 -17 13 -17 8z"/>
<path d="M9046 10355 c-9 -26 -7 -32 5 -12 6 10 9 21 6 23 -2 3 -7 -2 -11 -11z"/>
<path d="M6077 10333 c-4 -3 -7 -11 -7 -17 0 -6 5 -5 12 2 6 6 9 14 7 17 -3 3
-9 2 -12 -2z"/>
<path d="M6155 10320 c4 -6 11 -8 16 -5 14 9 11 15 -7 15 -8 0 -12 -5 -9 -10z"/>
<path d="M6180 10308 c-1 -5 -3 -11 -4 -15 -1 -5 -6 -19 -10 -32 -5 -14 -4
-27 3 -34 14 -14 24 12 18 55 -2 18 -5 30 -7 26z"/>
<path d="M9000 10249 c-10 -18 -9 -20 6 -17 9 1 18 11 20 21 3 24 -13 22 -26
-4z"/>
<path d="M6120 10144 c0 -8 5 -12 10 -9 6 4 8 11 5 16 -9 14 -15 11 -15 -7z"/>
<path d="M6797 10103 c-4 -6 -1 -13 5 -16 9 -3 6 -12 -11 -30 -19 -21 -20 -25
-6 -23 10 1 23 17 31 35 7 17 9 29 5 26 -5 -3 -11 0 -13 7 -3 9 -6 9 -11 1z"/>
<path d="M12316 10102 c-2 -4 -1 -14 4 -22 7 -11 9 -9 7 8 -1 24 -3 26 -11 14z"/>
<path d="M8863 10076 c5 -16 27 -19 27 -3 0 7 -7 14 -15 14 -9 0 -14 -5 -12
-11z"/>
<path d="M12376 10055 c-9 -26 -7 -32 5 -12 6 10 9 21 6 23 -2 3 -7 -2 -11
-11z"/>
<path d="M12426 10001 c-15 -17 -15 -19 -1 -25 9 -3 13 -2 10 4 -3 6 3 10 14
10 12 0 21 4 21 10 0 5 -7 6 -17 3 -11 -4 -14 -3 -9 5 11 18 1 14 -18 -7z"/>
<path d="M13967 9997 c3 -5 14 -7 24 -4 10 3 20 0 23 -7 2 -6 5 -3 5 6 1 13
-6 17 -28 15 -16 -1 -27 -6 -24 -10z"/>
<path d="M12490 9980 c0 -5 5 -10 11 -10 5 0 7 5 4 10 -3 6 -8 10 -11 10 -2 0
-4 -4 -4 -10z"/>
<path d="M12324 9941 c4 -5 3 -11 -1 -14 -5 -2 -2 -2 5 -1 6 2 12 -2 12 -8 0
-6 2 -9 5 -6 8 8 -6 38 -17 38 -5 0 -7 -4 -4 -9z"/>
<path d="M13590 9850 c-12 -7 -12 -11 -2 -20 6 -5 10 -7 7 -4 -3 4 0 13 6 21
13 15 10 16 -11 3z"/>
<path d="M13538 9833 c6 -2 18 -2 25 0 6 3 1 5 -13 5 -14 0 -19 -2 -12 -5z"/>
<path d="M13515 9809 c-4 -6 -5 -12 -2 -15 2 -3 7 2 10 11 7 17 1 20 -8 4z"/>
<path d="M13474 9799 c-4 -7 -3 -9 4 -5 5 3 13 0 15 -6 4 -9 6 -10 6 -1 1 17
-16 25 -25 12z"/>
<path d="M7141 9724 c-17 -37 -8 -39 13 -4 9 17 13 30 8 30 -5 0 -14 -12 -21
-26z"/>
<path d="M10270 9740 c0 -5 5 -10 11 -10 5 0 7 5 4 10 -3 6 -8 10 -11 10 -2 0
-4 -4 -4 -10z"/>
<path d="M8697 9651 c-3 -13 -1 -18 9 -14 7 2 10 11 7 19 -7 19 -10 18 -16 -5z"/>
<path d="M8505 9630 c-8 -13 -1 -24 14 -19 6 3 7 10 2 18 -6 10 -10 10 -16 1z"/>
<path d="M10215 9591 c-3 -5 -1 -12 5 -16 5 -3 10 1 10 9 0 18 -6 21 -15 7z"/>
<path d="M8790 9579 c0 -5 5 -7 10 -4 6 3 10 8 10 11 0 2 -4 4 -10 4 -5 0 -10
-5 -10 -11z"/>
<path d="M6365 9541 c-7 -12 2 -31 15 -31 9 0 8 26 -2 35 -3 4 -9 2 -13 -4z"/>
<path d="M12786 9538 c3 -5 10 -6 15 -3 13 9 11 12 -6 12 -8 0 -12 -4 -9 -9z"/>
<path d="M8884 9525 c-10 -8 -14 -14 -9 -14 6 0 19 6 29 14 11 8 15 15 10 15
-6 0 -19 -7 -30 -15z"/>
<path d="M12755 9531 c-3 -5 -2 -12 3 -15 5 -3 9 1 9 9 0 17 -3 19 -12 6z"/>
<path d="M9300 9479 c0 -5 5 -7 10 -4 6 3 10 8 10 11 0 2 -4 4 -10 4 -5 0 -10
-5 -10 -11z"/>
<path d="M9279 9443 c-1 -5 -1 -12 0 -17 1 -5 -4 -13 -11 -17 -7 -4 -9 -11 -6
-15 9 -8 32 16 36 39 2 9 -2 17 -8 17 -5 0 -11 -3 -11 -7z"/>
<path d="M9397 9404 c-9 -9 4 -35 14 -28 5 3 9 12 9 20 0 14 -12 19 -23 8z"/>
<path d="M12580 9386 c0 -2 7 -7 16 -10 8 -3 12 -2 9 4 -6 10 -25 14 -25 6z"/>
<path d="M12486 9318 c5 -8 1 -9 -12 -4 -15 6 -17 5 -6 -5 14 -15 16 -33 2
-24 -5 3 -7 0 -4 -8 4 -11 -1 -13 -19 -10 -14 3 -28 0 -31 -6 -5 -7 -1 -8 10
-4 11 4 15 3 10 -5 -3 -6 -1 -14 5 -18 8 -4 9 -3 5 4 -4 7 -1 12 9 12 9 0 22
14 29 30 7 17 16 27 21 23 5 -5 3 0 -4 10 -15 19 -26 23 -15 5z"/>
<path d="M9750 9228 c0 -19 2 -20 10 -8 13 19 13 30 0 30 -5 0 -10 -10 -10
-22z"/>
<path d="M9953 9153 c-24 -5 -30 -18 -14 -28 5 -3 17 2 25 11 14 13 22 27 14
23 -2 -1 -13 -4 -25 -6z"/>
<path d="M12410 9146 c0 -2 7 -7 16 -10 8 -3 12 -2 9 4 -6 10 -25 14 -25 6z"/>
<path d="M12400 9080 c0 -5 5 -10 11 -10 5 0 7 5 4 10 -3 6 -8 10 -11 10 -2 0
-4 -4 -4 -10z"/>
<path d="M12390 9002 c0 -5 7 -9 15 -9 8 0 12 4 9 9 -3 4 -9 8 -15 8 -5 0 -9
-4 -9 -8z"/>
<path d="M9830 8980 c0 -5 5 -10 10 -10 6 0 10 5 10 10 0 6 -4 10 -10 10 -5 0
-10 -4 -10 -10z"/>
<path d="M12380 8919 c0 -5 5 -7 10 -4 6 3 10 8 10 11 0 2 -4 4 -10 4 -5 0
-10 -5 -10 -11z"/>
<path d="M6174 8712 c3 -5 0 -13 -6 -15 -9 -4 -10 -6 -1 -6 17 -1 25 16 12 25
-7 4 -9 3 -5 -4z"/>
<path d="M12362 8674 c-7 -8 -8 -14 -3 -14 10 0 25 19 20 25 -2 1 -10 -3 -17
-11z"/>
<path d="M6210 8630 c-6 -11 -8 -20 -6 -20 3 0 10 9 16 20 6 11 8 20 6 20 -3
0 -10 -9 -16 -20z"/>
<path d="M12406 8522 c-3 -5 1 -9 9 -9 8 0 12 4 9 9 -3 4 -7 8 -9 8 -2 0 -6
-4 -9 -8z"/>
<path d="M3769 8443 c-13 -16 -12 -17 4 -4 9 7 17 15 17 17 0 8 -8 3 -21 -13z"/>
<path d="M7056 8394 c-5 -14 -4 -15 9 -4 17 14 19 20 6 20 -5 0 -12 -7 -15
-16z"/>
<path d="M3744 8359 c-3 -5 -2 -9 3 -10 4 0 16 -2 25 -4 9 -2 19 2 21 8 5 14
-40 19 -49 6z"/>
<path d="M4250 8319 c0 -5 5 -7 10 -4 6 3 10 8 10 11 0 2 -4 4 -10 4 -5 0 -10
-5 -10 -11z"/>
<path d="M3742 8278 c2 -7 -4 -12 -12 -10 -8 2 -12 0 -8 -4 4 -4 2 -14 -5 -22
-11 -13 -9 -14 10 -1 26 16 36 36 22 44 -5 4 -8 1 -7 -7z"/>
<path d="M4260 8240 c0 -5 5 -10 11 -10 5 0 7 5 4 10 -3 6 -8 10 -11 10 -2 0
-4 -4 -4 -10z"/>
<path d="M12439 8228 c-6 -21 -5 -38 1 -38 5 0 8 9 7 20 -1 17 -5 26 -8 18z"/>
<path d="M4240 8119 c0 -5 5 -7 10 -4 6 3 10 8 10 11 0 2 -4 4 -10 4 -5 0 -10
-5 -10 -11z"/>
<path d="M4416 8114 c-5 -14 -4 -15 9 -4 17 14 19 20 6 20 -5 0 -12 -7 -15
-16z"/>
<path d="M12470 8109 c0 -5 5 -7 10 -4 6 3 10 8 10 11 0 2 -4 4 -10 4 -5 0
-10 -5 -10 -11z"/>
<path d="M4621 7986 c0 -11 3 -15 6 -8 5 13 24 17 22 5 -3 -19 2 -33 11 -33 5
0 6 8 3 17 -5 12 -2 15 10 10 14 -5 15 -3 6 11 -6 9 -22 18 -35 18 -19 2 -24
-3 -23 -20z"/>
<path d="M4697 7956 c-4 -9 -3 -15 1 -15 21 3 43 -2 38 -9 -3 -5 3 -8 12 -7 9
0 18 4 20 8 7 21 0 27 -24 21 -16 -4 -29 -2 -34 5 -5 10 -9 9 -13 -3z"/>
<path d="M3596 7942 c-3 -4 4 -9 15 -9 23 -2 25 3 4 10 -8 4 -16 3 -19 -1z"/>
<path d="M4800 7940 c20 -13 33 -13 25 0 -3 6 -14 10 -23 10 -15 0 -15 -2 -2
-10z"/>
<path d="M4786 7921 c-3 -5 1 -11 9 -15 9 -3 15 0 15 9 0 16 -16 20 -24 6z"/>
<path d="M4896 7904 c1 -6 -2 -16 -8 -22 -6 -6 -6 -12 3 -18 7 -4 14 -3 17 4
2 7 9 9 15 5 8 -5 8 -2 0 9 -7 8 -9 19 -5 23 4 5 2 5 -5 2 -6 -4 -13 -4 -16 0
-2 5 -3 3 -1 -3z"/>
<path d="M3554 7885 c3 -8 0 -15 -7 -15 -8 0 -7 -4 3 -10 15 -9 56 17 45 29
-4 3 -10 -1 -15 -9 -8 -13 -10 -12 -10 3 0 9 -5 17 -11 17 -6 0 -9 -7 -5 -15z"/>
<path d="M6820 7840 c0 -13 18 -22 24 -11 3 5 -1 11 -9 15 -8 3 -15 1 -15 -4z"/>
<path d="M6435 7830 c-3 -5 -1 -10 4 -10 6 0 11 5 11 10 0 6 -2 10 -4 10 -3 0
-8 -4 -11 -10z"/>
<path d="M5045 7808 c-12 -35 -13 -58 -4 -63 4 -3 6 6 3 20 -3 16 1 27 9 31 8
3 14 11 14 19 0 23 -14 18 -22 -7z"/>
<path d="M5290 7815 c7 -8 17 -12 22 -9 6 4 5 10 -3 15 -22 14 -33 10 -19 -6z"/>
<path d="M5276 7761 c-4 -5 0 -12 6 -15 10 -5 10 -7 1 -12 -18 -8 -16 -21 2
-21 8 0 13 3 10 5 -3 3 0 11 6 19 9 10 8 13 0 13 -7 0 -9 5 -6 10 3 6 2 10 -4
10 -5 0 -12 -4 -15 -9z"/>
<path d="M10430 7762 c0 -4 11 -8 25 -8 28 0 24 8 -5 13 -11 2 -20 -1 -20 -5z"/>
<path d="M10524 7728 c3 -15 26 -23 26 -8 0 6 -4 9 -9 6 -5 -4 -12 -1 -14 4
-3 6 -4 5 -3 -2z"/>
<path d="M3961 7696 c-9 -11 -9 -16 0 -22 7 -4 9 -3 5 4 -3 5 0 12 6 15 7 2
10 7 7 11 -3 4 -12 0 -18 -8z"/>
<path d="M3943 7653 c-17 -6 -16 -20 1 -26 8 -3 17 1 20 8 6 17 -3 24 -21 18z"/>
<path d="M3906 7582 c-2 -4 0 -14 6 -22 8 -12 9 -11 4 4 -5 15 -2 17 14 13 11
-3 18 -1 14 4 -6 11 -31 12 -38 1z"/>
<path d="M10747 7579 c7 -7 15 -10 18 -7 3 3 -2 9 -12 12 -14 6 -15 5 -6 -5z"/>
<path d="M12606 7558 c3 -5 10 -6 15 -3 13 9 11 12 -6 12 -8 0 -12 -4 -9 -9z"/>
<path d="M3327 7530 c-11 -14 -13 -20 -4 -20 7 0 18 9 25 20 7 11 9 20 4 20
-4 0 -15 -9 -25 -20z"/>
<path d="M3865 7420 c-3 -6 1 -7 9 -4 18 7 21 14 7 14 -6 0 -13 -4 -16 -10z"/>
<path d="M10955 7420 c3 -5 8 -10 11 -10 2 0 4 5 4 10 0 6 -5 10 -11 10 -5 0
-7 -4 -4 -10z"/>
<path d="M6795 7350 c-3 -5 1 -10 10 -10 9 0 13 5 10 10 -3 6 -8 10 -10 10 -2
0 -7 -4 -10 -10z"/>
<path d="M6046 7079 c-12 -11 -14 -19 -7 -19 7 0 9 -4 6 -10 -3 -6 1 -7 10 -4
8 4 20 14 25 24 14 26 -10 32 -34 9z"/>
<path d="M3225 7080 c-3 -5 -1 -10 4 -10 6 0 11 5 11 10 0 6 -2 10 -4 10 -3 0
-8 -4 -11 -10z"/>
<path d="M11805 7080 c-4 -6 -1 -9 7 -8 8 2 12 -5 10 -17 -2 -16 -1 -17 7 -5
7 10 11 11 11 3 0 -7 10 -17 21 -24 21 -11 21 -11 3 14 -25 33 -51 50 -59 37z"/>
<path d="M6132 7054 c-1 -13 2 -24 6 -24 10 0 13 38 3 44 -3 3 -8 -6 -9 -20z"/>
<path d="M6055 7031 c-25 -5 -27 -8 -12 -14 17 -6 57 7 57 18 0 6 -3 5 -45 -4z"/>
<path d="M6222 7033 c-6 -2 -9 -9 -6 -14 3 -6 11 -5 20 2 10 8 14 8 14 0 0 -6
-4 -11 -10 -11 -5 0 -10 -5 -10 -12 0 -6 9 -3 20 7 16 14 17 20 8 27 -14 9
-17 9 -36 1z"/>
<path d="M3140 6991 c0 -29 15 -33 18 -5 1 13 -3 24 -8 24 -6 0 -10 -9 -10
-19z"/>
<path d="M6200 7000 c0 -5 5 -10 10 -10 6 0 10 5 10 10 0 6 -4 10 -10 10 -5 0
-10 -4 -10 -10z"/>
<path d="M3557 6984 c-3 -5 1 -15 9 -22 16 -14 18 -5 5 17 -5 7 -11 9 -14 5z"/>
<path d="M6195 6940 c3 -5 8 -10 11 -10 2 0 4 5 4 10 0 6 -5 10 -11 10 -5 0
-7 -4 -4 -10z"/>
<path d="M3138 6917 c-3 -15 0 -24 8 -24 7 0 11 9 8 20 -5 29 -11 31 -16 4z"/>
<path d="M6215 6920 c-3 -5 -1 -10 4 -10 6 0 11 5 11 10 0 6 -2 10 -4 10 -3 0
-8 -4 -11 -10z"/>
<path d="M9065 6920 c3 -5 8 -10 11 -10 2 0 4 5 4 10 0 6 -5 10 -11 10 -5 0
-7 -4 -4 -10z"/>
<path d="M6986 6855 c-3 -9 -6 -22 -5 -28 0 -7 5 -1 10 12 5 13 8 26 5 28 -2
2 -6 -3 -10 -12z"/>
<path d="M6387 6844 c-3 -3 -3 -13 0 -22 4 -8 2 -13 -3 -9 -5 3 -10 -3 -10
-14 0 -19 1 -19 13 -3 7 10 13 22 13 27 0 4 5 5 10 2 6 -3 10 1 10 9 0 16 -21
22 -33 10z"/>
<path d="M7057 6829 c7 -7 15 -10 18 -7 3 3 -2 9 -12 12 -14 6 -15 5 -6 -5z"/>
<path d="M3245 6800 c-3 -6 1 -7 9 -4 18 7 21 14 7 14 -6 0 -13 -4 -16 -10z"/>
<path d="M12043 6770 c-3 -11 -9 -17 -14 -14 -5 3 -9 -2 -9 -10 0 -8 5 -18 12
-22 7 -4 8 -3 4 4 -6 10 4 16 25 14 3 0 5 10 5 24 0 29 -16 32 -23 4z"/>
<path d="M6710 6761 c0 -6 4 -12 8 -15 5 -3 9 1 9 9 0 8 -4 15 -9 15 -4 0 -8
-4 -8 -9z"/>
<path d="M7435 6750 c-3 -5 -1 -10 4 -10 6 0 11 5 11 10 0 6 -2 10 -4 10 -3 0
-8 -4 -11 -10z"/>
<path d="M8866 6725 c4 -8 11 -15 16 -15 6 0 5 6 -2 15 -7 8 -14 15 -16 15 -2
0 -1 -7 2 -15z"/>
<path d="M13065 6700 c3 -5 8 -10 11 -10 2 0 4 5 4 10 0 6 -5 10 -11 10 -5 0
-7 -4 -4 -10z"/>
<path d="M8750 6670 c0 -5 5 -10 11 -10 5 0 7 5 4 10 -3 6 -8 10 -11 10 -2 0
-4 -4 -4 -10z"/>
<path d="M8695 6649 c-11 -17 -2 -18 19 -3 17 12 17 14 4 14 -9 0 -20 -5 -23
-11z"/>
<path d="M8601 6604 c0 -11 3 -14 6 -6 3 7 2 16 -1 19 -3 4 -6 -2 -5 -13z"/>
<path d="M13105 6587 c-22 -13 -31 -37 -14 -37 5 0 8 -4 5 -9 -7 -11 22 -36
31 -27 3 3 2 6 -4 6 -14 0 -12 28 3 34 9 3 11 -1 8 -12 -5 -14 -4 -15 5 -2 15
21 14 33 -3 27 -20 -8 -28 4 -15 20 14 16 10 16 -16 0z"/>
<path d="M7707 6559 c7 -7 15 -10 18 -7 3 3 -2 9 -12 12 -14 6 -15 5 -6 -5z"/>
<path d="M11836 5981 c-4 -7 -5 -15 -2 -18 9 -9 19 4 14 18 -4 11 -6 11 -12 0z"/>
<path d="M11860 5973 c0 -11 7 -20 15 -20 12 0 12 3 3 16 -7 9 -14 18 -15 20
-2 2 -3 -5 -3 -16z"/>
<path d="M11625 5970 c-11 -18 5 -32 22 -19 9 8 17 9 21 3 11 -15 32 -15 32 0
0 17 -38 18 -59 2 -12 -9 -13 -7 -8 7 7 18 2 23 -8 7z"/>
<path d="M11735 5971 c-3 -5 -2 -12 3 -15 5 -3 9 1 9 9 0 17 -3 19 -12 6z"/>
<path d="M12135 5970 c-3 -5 -2 -10 4 -10 5 0 13 5 16 10 3 6 2 10 -4 10 -5 0
-13 -4 -16 -10z"/>
<path d="M11925 5960 c3 -5 8 -10 11 -10 2 0 4 5 4 10 0 6 -5 10 -11 10 -5 0
-7 -4 -4 -10z"/>
<path d="M11798 5953 c7 -3 16 -2 19 1 4 3 -2 6 -13 5 -11 0 -14 -3 -6 -6z"/>
<path d="M11499 5935 c-11 -11 -163 -18 -647 -30 -111 -3 -206 -6 -210 -6 -37
-6 -82 3 -82 16 0 8 -4 15 -10 15 -5 0 -10 -7 -10 -15 0 -25 -107 -22 -126 3
-10 14 -14 13 -39 -6 -26 -21 -52 -21 -40 -1 4 5 -1 9 -9 9 -9 0 -16 -7 -16
-15 0 -12 -11 -15 -47 -15 -27 1 -64 -1 -83 -3 -19 -3 -91 -8 -159 -12 -98 -6
-122 -4 -116 6 6 9 4 10 -6 3 -18 -11 -59 -13 -59 -2 0 5 -13 2 -29 -6 -15 -8
-57 -18 -92 -22 -72 -7 -82 -11 -73 -25 3 -6 -4 -5 -15 3 -18 11 -23 11 -31
-2 -5 -8 -10 -10 -10 -5 0 13 -52 14 -61 2 -8 -11 -112 -13 -128 -2 -8 4 -17
2 -21 -5 -6 -10 -9 -9 -13 1 -4 12 -7 11 -16 -1 -7 -10 -11 -11 -11 -3 0 9 -7
10 -26 3 -14 -6 -38 -10 -53 -10 -16 0 -46 -6 -67 -14 -22 -7 -48 -10 -59 -6
-11 4 -26 3 -32 -2 -7 -6 -20 -7 -29 -4 -9 4 -22 2 -29 -4 -7 -6 -50 -11 -96
-11 -46 -1 -113 -7 -148 -14 -47 -10 -70 -10 -88 -2 -26 12 -153 -7 -188 -28
-11 -7 -44 -13 -73 -13 -60 -2 -73 -7 -66 -26 6 -16 -64 -28 -82 -15 -6 5 -32
4 -60 -2 -27 -6 -61 -11 -76 -11 -16 -1 -28 -5 -28 -9 0 -5 -6 -6 -14 -3 -9 3
-17 -3 -21 -16 -5 -15 -12 -19 -23 -14 -23 9 -83 5 -98 -7 -8 -7 -13 -6 -16 2
-3 8 -9 9 -19 3 -8 -5 -25 -10 -39 -11 -94 -6 -180 -28 -180 -45 0 -4 -9 -8
-19 -8 -11 0 -23 -5 -27 -11 -4 -7 -22 -9 -50 -4 -31 4 -54 1 -80 -11 -20 -9
-54 -18 -77 -18 -25 -1 -42 -6 -45 -15 -3 -9 0 -11 8 -6 8 5 11 4 7 -3 -9 -13
-47 -4 -47 12 0 6 -7 2 -15 -8 -11 -14 -15 -16 -15 -5 0 8 -3 10 -8 4 -8 -12
-26 -17 -67 -19 -24 -1 -30 -5 -28 -21 1 -17 0 -18 -10 -5 -15 19 -84 15 -104
-6 -11 -10 -19 -11 -33 -4 -16 9 -21 6 -26 -14 -3 -14 -3 -34 1 -46 7 -22 -9
-50 -29 -50 -6 0 -11 15 -11 33 0 31 -1 32 -43 30 -29 -1 -58 -12 -89 -32 -53
-35 -59 -37 -67 -16 -3 8 -13 15 -22 15 -22 0 -74 -32 -74 -46 0 -14 -28 -26
-42 -18 -11 7 -137 -47 -138 -59 0 -16 31 -18 54 -3 13 8 55 18 93 22 37 4 80
13 96 21 24 12 27 12 27 -4 0 -15 4 -14 20 7 19 23 21 24 31 8 5 -10 17 -18
24 -18 8 0 15 -5 15 -11 0 -5 -4 -8 -9 -5 -4 3 -25 -3 -46 -14 -22 -11 -54
-23 -72 -26 -18 -3 -33 -10 -33 -16 0 -5 -7 -8 -16 -6 -9 2 -18 -4 -19 -12 -2
-12 7 -15 44 -14 63 2 150 19 163 32 7 7 19 7 35 1 27 -10 41 -5 61 23 10 13
17 15 32 8 11 -6 28 -14 39 -19 23 -12 134 -6 139 7 1 5 -5 17 -14 27 -15 14
-15 18 -3 26 23 14 39 10 39 -10 0 -22 35 -34 61 -21 21 12 69 10 87 -3 8 -7
12 -5 12 7 0 26 27 18 51 -15 20 -28 26 -31 60 -25 21 3 40 2 44 -4 13 -21 24
-9 19 20 -5 24 -3 30 11 30 9 0 19 -8 22 -19 10 -40 133 -55 221 -26 13 4 22
3 22 -3 0 -6 -8 -12 -17 -15 -10 -2 24 -3 76 -1 52 1 106 8 121 14 22 9 35 8
66 -6 53 -23 104 -24 129 -2 30 26 85 35 85 15 0 -11 9 -16 28 -15 15 1 56 -4
92 -11 36 -7 115 -14 176 -15 61 -2 117 -6 123 -10 18 -11 54 -15 175 -20 60
-3 116 -2 125 3 9 4 30 5 46 2 24 -5 31 -12 33 -34 3 -28 4 -28 70 -26 37 1
86 -1 109 -5 32 -6 48 -3 68 10 22 14 39 16 118 9 51 -4 108 -7 126 -7 24 1
39 -6 49 -19 15 -21 38 -25 44 -7 3 7 9 8 18 3 8 -5 21 -10 30 -11 8 -1 32 -6
53 -10 28 -5 42 -3 55 9 17 16 62 20 62 6 0 -4 12 -10 28 -14 15 -3 42 -13 59
-22 18 -8 39 -13 46 -10 7 3 21 -1 32 -9 10 -8 29 -14 41 -14 13 0 26 -5 29
-11 4 -6 13 -8 21 -5 8 3 14 1 14 -4 0 -14 34 -12 49 3 10 10 11 9 6 -5 -4
-11 -2 -18 4 -18 6 0 11 4 11 10 0 6 9 6 23 1 34 -13 99 -22 94 -14 -12 18 53
6 67 -12 12 -15 15 -16 16 -5 0 13 2 13 9 1 8 -13 12 -13 27 0 10 8 15 9 11 3
-5 -8 14 -16 58 -25 36 -7 65 -17 65 -23 0 -6 5 -4 10 4 5 8 10 10 10 4 0 -7
7 -15 16 -18 10 -4 13 -2 8 7 -4 6 2 4 13 -5 20 -19 48 -25 39 -9 -4 5 5 4 18
-2 13 -7 22 -16 18 -22 -3 -5 2 -4 11 4 9 7 17 10 17 6 0 -4 8 -1 18 6 15 13
16 12 4 -2 -10 -14 -10 -18 3 -23 9 -3 14 -2 11 2 -2 4 13 6 35 4 25 -3 37 -8
32 -16 -3 -6 -1 -6 8 2 15 14 49 16 49 3 0 -5 -10 -7 -22 -3 -13 3 -19 1 -15
-5 8 -13 114 -8 131 6 7 6 16 8 19 5 4 -4 23 -8 43 -10 32 -3 35 -2 22 14 -12
15 -11 16 4 3 10 -7 37 -15 59 -16 23 -2 46 -10 51 -17 6 -9 7 -6 3 10 -4 13
-2 22 4 22 6 0 10 -3 10 -7 -3 -19 2 -33 12 -33 5 0 8 4 4 9 -3 6 6 8 21 5 17
-3 23 -1 19 7 -6 8 -2 8 13 0 14 -8 23 -8 27 -1 10 17 35 -8 29 -28 -5 -15 -4
-15 9 1 16 20 32 23 21 5 -5 -8 0 -7 11 2 14 11 17 11 11 1 -7 -10 -3 -12 15
-6 13 4 26 12 27 16 6 14 19 10 19 -6 0 -8 -4 -12 -9 -9 -4 3 -8 1 -8 -5 0 -5
9 -9 20 -8 12 1 18 7 16 14 -3 7 1 10 9 7 8 -3 11 -13 8 -22 -4 -14 -3 -15 6
-2 7 11 5 21 -12 40 -20 22 -20 23 -1 7 11 -9 24 -14 29 -10 4 5 5 2 1 -4 -9
-16 25 -18 41 -2 17 17 37 1 22 -17 -9 -11 -9 -14 0 -14 7 0 9 -5 5 -12 -6
-10 -5 -10 8 -1 8 7 18 10 21 6 4 -3 7 -1 7 6 0 7 -7 11 -14 8 -10 -4 -13 -1
-9 8 3 10 10 12 21 6 10 -4 23 -6 30 -4 6 3 12 0 12 -6 0 -6 -5 -10 -11 -8 -6
1 -14 -5 -16 -13 -4 -12 -3 -12 5 -1 8 11 10 11 15 0 5 -12 6 -12 6 0 1 11 4
11 19 0 15 -13 16 -12 4 3 -10 12 -10 18 -1 24 7 4 10 3 7 -2 -3 -5 1 -16 10
-24 14 -13 15 -12 9 3 -3 9 -1 19 5 23 6 4 9 3 6 -2 -3 -5 0 -15 8 -22 11 -10
14 -10 14 0 0 9 3 10 8 2 4 -6 17 -14 30 -18 21 -7 28 1 22 29 -1 5 7 2 18 -8
10 -9 24 -17 31 -17 7 0 9 -4 6 -10 -4 -6 1 -7 11 -3 13 5 15 3 9 -8 -5 -8 4
-3 20 11 24 22 26 22 17 4 -9 -16 -8 -21 3 -21 8 0 12 4 10 8 -3 4 2 10 11 13
11 4 15 2 11 -8 -4 -11 0 -13 16 -10 12 3 27 5 32 5 6 -1 33 -2 60 -4 28 -1
53 -6 57 -12 4 -5 8 -1 8 10 1 18 1 19 11 2 7 -13 15 -15 28 -8 9 5 23 6 30 2
7 -5 22 -7 34 -5 138 17 140 17 132 3 -7 -11 -6 -12 6 -3 14 12 86 11 144 -1
32 -6 227 -8 260 -2 11 2 35 -2 53 -10 18 -7 58 -16 90 -18 52 -4 97 -11 97
-15 0 -1 54 -3 120 -5 66 -2 120 -4 120 -5 0 0 29 -3 64 -5 35 -2 66 -6 68 -9
3 -2 19 0 36 6 32 10 45 12 167 23 36 3 72 8 80 12 28 11 40 11 41 0 0 -7 4
-2 10 11 5 13 13 20 19 17 5 -3 16 -3 22 1 7 5 19 9 28 10 32 5 50 10 56 17 4
4 19 7 33 7 14 0 35 7 45 15 10 8 23 12 27 9 5 -3 9 -1 9 5 0 6 7 7 17 4 11
-4 14 -3 9 5 -4 7 -2 13 3 13 35 4 73 20 93 38 19 19 176 53 246 54 6 0 12 5
12 11 0 6 5 4 10 -4 8 -13 10 -12 10 3 0 9 6 17 14 17 12 0 13 14 10 71 -3 48
-1 69 6 64 7 -4 10 5 8 24 -1 17 -6 31 -12 31 -5 0 -2 8 7 18 10 10 14 22 10
25 -9 10 -4 109 7 122 6 7 6 24 0 43 -5 20 -5 32 1 32 5 0 9 5 9 10 0 6 -7 10
-15 10 -15 0 -19 10 -16 43 1 9 -2 17 -8 17 -5 0 -12 14 -16 30 -4 17 -11 27
-16 24 -13 -8 -56 36 -69 70 -7 19 -15 26 -26 22 -8 -3 -17 1 -20 9 -3 8 -22
17 -42 21 -34 7 -43 12 -77 42 -8 7 -20 12 -27 11 -33 -4 -68 2 -80 15 -10 9
-20 11 -31 4 -11 -5 -17 -5 -17 0 0 9 -24 19 -70 29 -8 2 -55 9 -103 16 -49 7
-86 15 -82 19 3 3 0 6 -7 5 -7 -1 -34 3 -60 7 -34 6 -48 13 -48 25 0 9 -3 12
-8 6 -4 -5 -18 -11 -32 -13 -20 -2 -22 -1 -10 7 11 8 -5 11 -58 11 -40 0 -71
3 -69 8 3 4 -24 8 -60 9 -35 1 -71 7 -79 14 -8 7 -38 13 -67 14 -29 1 -68 6
-87 10 -19 4 -52 7 -73 7 -31 -1 -40 3 -49 22 -6 14 -16 22 -24 19 -8 -3 -12
-9 -9 -13 3 -5 -3 -11 -14 -15 -24 -7 -95 21 -86 35 8 14 4 13 -34 -6 -30 -15
-48 -15 -175 -4 -158 14 -486 30 -586 29 -45 0 -70 -5 -82 -16 -15 -13 -23
-14 -44 -5 -13 7 -38 12 -54 12 -16 0 -32 5 -35 10 -4 7 -35 8 -84 4 -49 -4
-81 -3 -84 3 -4 7 -23 7 -49 3 -24 -5 -50 -4 -60 1 -17 9 -131 13 -139 4z
m1816 -115 c3 -6 -1 -7 -9 -4 -18 7 -21 14 -7 14 6 0 13 -4 16 -10z m-2308
-995 c0 -8 -4 -12 -9 -9 -5 3 -6 10 -3 15 9 13 12 11 12 -6z m480 -11 c-3 -3
-12 -4 -19 -1 -8 3 -5 6 6 6 11 1 17 -2 13 -5z m373 -54 c0 -5 -7 -7 -15 -4
-8 4 -15 8 -15 10 0 2 7 4 15 4 8 0 15 -4 15 -10z m94 -6 c3 -8 2 -12 -4 -9
-6 3 -10 10 -10 16 0 14 7 11 14 -7z"/>
<path d="M10120 5916 c0 -2 7 -6 15 -10 8 -3 15 -1 15 4 0 6 -7 10 -15 10 -8
0 -15 -2 -15 -4z"/>
<path d="M9150 5836 c0 -2 8 -10 18 -17 15 -13 16 -12 3 4 -13 16 -21 21 -21
13z"/>
<path d="M9005 5820 c-3 -5 -3 -10 2 -10 4 0 2 -4 -5 -9 -10 -6 -9 -10 7 -14
14 -3 21 0 21 9 0 8 6 14 13 14 8 0 7 4 -3 10 -19 12 -27 12 -35 0z"/>
<path d="M9066 5822 c-3 -5 1 -9 9 -9 8 0 15 4 15 9 0 4 -4 8 -9 8 -6 0 -12
-4 -15 -8z"/>
<path d="M8510 5759 c0 -5 5 -7 10 -4 6 3 10 8 10 11 0 2 -4 4 -10 4 -5 0 -10
-5 -10 -11z"/>
<path d="M8431 5741 c-7 -5 -9 -11 -5 -14 5 -3 15 1 22 9 14 16 5 18 -17 5z"/>
<path d="M8195 5700 c-3 -5 -1 -10 4 -10 6 0 11 5 11 10 0 6 -2 10 -4 10 -3 0
-8 -4 -11 -10z"/>
<path d="M6686 5222 c-4 -7 -11 -10 -16 -7 -5 3 -15 -1 -23 -9 -8 -8 -17 -12
-21 -9 -3 4 -6 1 -6 -5 0 -6 10 -18 22 -26 21 -15 23 -14 41 14 10 16 17 35
15 42 -3 9 -6 9 -12 0z"/>
<path d="M7350 5216 c0 -2 9 -6 20 -9 11 -3 18 -1 14 4 -5 9 -34 13 -34 5z"/>
<path d="M6558 5165 c-3 -14 -1 -25 3 -25 5 0 9 11 9 25 0 14 -2 25 -4 25 -2
0 -6 -11 -8 -25z"/>
<path d="M7168 5173 c7 -3 16 -2 19 1 4 3 -2 6 -13 5 -11 0 -14 -3 -6 -6z"/>
<path d="M8085 5169 c-11 -17 1 -21 15 -4 8 9 8 15 2 15 -6 0 -14 -5 -17 -11z"/>
<path d="M7938 5143 c6 -2 18 -2 25 0 6 3 1 5 -13 5 -14 0 -19 -2 -12 -5z"/>
<path d="M8240 5146 c0 -2 7 -6 15 -10 8 -3 15 -1 15 4 0 6 -7 10 -15 10 -8 0
-15 -2 -15 -4z"/>
<path d="M6770 5120 c0 -5 5 -10 10 -10 6 0 10 5 10 10 0 6 -4 10 -10 10 -5 0
-10 -4 -10 -10z"/>
<path d="M9080 5110 c0 -5 -19 -10 -42 -11 -32 0 -38 -2 -23 -8 11 -5 27 -7
35 -5 8 1 20 3 26 3 14 1 27 31 14 31 -6 0 -10 -4 -10 -10z"/>
<path d="M8838 5103 c6 -2 18 -2 25 0 6 3 1 5 -13 5 -14 0 -19 -2 -12 -5z"/>
<path d="M6060 5050 c-6 -11 -7 -20 -2 -20 6 0 12 9 15 20 3 11 3 20 1 20 -2
0 -8 -9 -14 -20z"/>
<path d="M8795 5040 c-3 -5 -1 -10 4 -10 6 0 11 5 11 10 0 6 -2 10 -4 10 -3 0
-8 -4 -11 -10z"/>
<path d="M9579 5036 c9 -10 8 -15 -4 -20 -8 -3 -15 -11 -15 -18 0 -9 3 -8 10
2 5 8 10 11 10 5 0 -5 4 -4 9 4 11 16 4 41 -11 41 -7 0 -6 -5 1 -14z"/>
<path d="M6280 5020 c-9 -6 -10 -10 -3 -10 6 0 15 5 18 10 8 12 4 12 -15 0z"/>
<path d="M6540 5020 c-13 -8 -12 -10 3 -10 9 0 17 5 17 10 0 12 -1 12 -20 0z"/>
<path d="M9655 5009 c-4 -6 -5 -12 -2 -15 2 -3 7 2 10 11 7 17 1 20 -8 4z"/>
<path d="M5982 4998 c6 -18 25 -21 25 -3 0 8 -7 15 -14 15 -8 0 -13 -5 -11
-12z"/>
<path d="M7136 4995 c7 -16 14 -18 38 -9 22 9 10 24 -19 24 -18 0 -23 -4 -19
-15z"/>
<path d="M7247 5003 c-3 -3 -3 -11 -1 -17 3 -7 -2 -19 -11 -26 -11 -9 -15 -9
-15 -1 0 7 -5 9 -10 6 -6 -4 -52 -1 -103 6 -64 8 -103 8 -128 2 -22 -7 -42 -7
-52 -2 -9 5 -130 10 -270 12 -208 2 -257 -1 -271 -12 -15 -13 -19 -13 -27 0
-7 12 -9 12 -10 -1 0 -10 -3 -8 -9 5 -7 17 -9 17 -9 3 -1 -25 -21 -23 -21 2 0
15 -7 20 -27 20 -22 0 -25 -2 -13 -10 8 -5 13 -10 10 -10 -3 -1 -27 -3 -55 -5
-84 -5 -141 -17 -183 -38 -17 -8 -31 -8 -56 1 -38 14 -96 16 -96 3 0 -5 -21
-10 -47 -10 -83 -2 -127 -2 -163 -1 -19 1 -48 -1 -65 -5 -16 -4 -37 -8 -45 -8
-16 0 -42 -22 -35 -29 12 -11 -35 0 -49 11 -9 8 -16 9 -16 3 0 -6 6 -13 13
-15 9 -4 9 -8 -3 -16 -8 -5 -18 -7 -22 -4 -5 2 -14 0 -21 -5 -7 -6 -24 -9 -39
-7 -16 2 -28 -1 -28 -7 0 -6 -7 -7 -15 -4 -46 18 -49 17 -22 -8 30 -30 29 -28
21 -49 -8 -21 -44 -9 -44 14 0 25 -15 24 -33 -1 -12 -18 -16 -19 -27 -5 -7 9
-21 13 -35 9 -14 -3 -29 1 -40 12 -20 21 -82 27 -89 9 -2 -7 -27 -15 -54 -19
-27 -3 -63 -13 -80 -21 -38 -19 -82 -6 -82 25 0 22 0 22 -87 24 -35 1 -63 -2
-63 -6 0 -4 -3 -7 -7 -7 -5 1 -27 1 -51 0 -30 -1 -41 -5 -36 -13 4 -7 3 -8 -5
-4 -6 4 -9 12 -6 17 4 5 -3 9 -15 9 -12 0 -18 -4 -15 -10 3 -5 2 -10 -4 -10
-5 0 -11 6 -14 13 -3 9 -9 9 -27 -1 -12 -8 -19 -9 -16 -4 6 10 -74 -10 -95
-24 -6 -3 -38 -7 -72 -9 -34 -2 -76 -5 -94 -7 -17 -2 -30 0 -27 4 8 12 -10 10
-51 -8 -20 -8 -47 -14 -59 -12 -11 1 -25 0 -31 -4 -14 -8 -110 -26 -180 -33
-33 -3 -78 -12 -100 -20 -22 -7 -47 -14 -55 -14 -148 -10 -203 -11 -191 -3 7
5 9 12 4 15 -13 8 -35 -8 -31 -23 4 -15 -29 -26 -137 -46 -117 -22 -154 -34
-161 -57 -4 -14 -12 -18 -32 -14 -14 3 -43 -1 -64 -9 -34 -12 -40 -12 -45 2
-6 17 -52 11 -64 -7 -3 -6 -15 -6 -30 0 -17 6 -32 5 -45 -2 -10 -6 -46 -12
-79 -14 -33 -1 -85 -12 -115 -24 -133 -52 -198 -71 -244 -71 -52 1 -116 -20
-116 -37 0 -6 -10 -10 -22 -10 -13 0 -48 -7 -78 -16 -30 -9 -75 -21 -100 -25
-49 -9 -105 -27 -218 -72 -40 -16 -77 -26 -82 -23 -6 4 -10 2 -10 -3 0 -5 -17
-14 -37 -20 -43 -13 -163 -55 -178 -63 -5 -3 -30 -11 -55 -18 -25 -7 -58 -19
-75 -26 -16 -7 -57 -20 -90 -30 -33 -10 -73 -23 -90 -29 -16 -6 -34 -11 -40
-12 -5 0 -18 -4 -27 -7 -35 -13 -54 -19 -108 -33 -30 -8 -64 -18 -75 -23 -11
-4 -47 -15 -80 -24 -59 -15 -171 -51 -210 -67 -11 -5 -40 -13 -65 -19 -25 -5
-64 -15 -88 -21 -24 -6 -47 -8 -53 -5 -5 3 -6 0 -4 -7 3 -8 -2 -14 -12 -15
-25 -1 -68 -12 -96 -22 -13 -5 -30 -5 -37 -1 -8 5 -19 6 -25 2 -5 -3 -19 -7
-30 -7 -44 -3 -101 -18 -117 -33 -14 -12 -21 -12 -32 -3 -12 10 -14 9 -10 -6
4 -14 -1 -19 -18 -20 -12 -1 -29 -10 -38 -20 -8 -11 -23 -25 -33 -32 -15 -12
-17 -12 -12 1 3 8 -1 20 -9 27 -17 14 -46 11 -48 -4 -1 -5 -12 -18 -24 -28
-22 -17 -23 -54 -2 -41 6 4 14 0 19 -7 11 -18 11 -32 0 -25 -4 3 -6 -6 -3 -19
4 -22 13 -29 33 -27 4 1 9 -8 12 -18 3 -12 1 -18 -5 -14 -5 4 -5 -3 2 -15 7
-14 8 -27 2 -34 -5 -7 -13 -22 -16 -34 -6 -17 -3 -23 9 -23 9 0 13 -5 10 -10
-4 -6 -10 -8 -15 -5 -11 7 -3 -36 8 -44 4 -3 8 -27 7 -53 -1 -27 2 -48 6 -48
12 0 3 -154 -9 -158 -7 -2 -10 -13 -6 -26 3 -15 -1 -29 -11 -40 -15 -15 -15
-16 0 -16 13 0 14 -4 5 -20 -6 -11 -7 -20 -2 -20 14 0 7 -97 -8 -115 -10 -12
-10 -15 1 -16 8 -1 18 -1 24 1 5 1 1 -8 -10 -19 -15 -17 -16 -24 -6 -34 10 -9
11 -8 6 6 -4 9 -2 17 4 17 6 0 10 -16 9 -35 -1 -19 -6 -35 -12 -35 -6 0 -5 -4
2 -9 8 -4 13 -11 13 -15 -3 -20 1 -26 14 -26 8 0 15 -8 15 -17 0 -15 -2 -16
-10 -3 -5 8 -12 11 -17 7 -11 -12 19 -27 33 -17 16 14 25 0 13 -21 -6 -13 -6
-19 1 -19 5 0 9 -3 9 -7 -4 -23 4 -29 31 -27 17 1 33 -2 36 -7 3 -5 15 -9 27
-9 20 -1 21 -1 4 -11 -10 -6 -27 -9 -37 -6 -11 3 -20 -2 -23 -12 -3 -11 2 -17
15 -18 10 -1 16 2 13 6 -8 14 44 19 55 6 6 -7 21 -16 34 -19 12 -3 23 -12 23
-20 0 -8 -4 -13 -9 -10 -4 3 -8 0 -8 -5 0 -6 8 -11 17 -11 23 0 83 -22 83 -31
0 -4 13 -10 30 -14 16 -4 30 -10 30 -14 0 -4 6 -8 13 -9 6 0 23 -4 37 -7 19
-5 22 -4 10 4 -12 8 -7 11 22 11 55 0 161 43 261 104 9 6 17 14 17 19 0 14 65
67 90 73 14 4 41 18 59 32 19 14 45 25 57 24 12 -1 27 5 34 13 13 16 40 21 40
8 0 -5 11 -8 25 -8 14 0 25 3 25 6 0 9 41 21 63 19 9 -1 17 3 17 8 0 6 14 15
31 21 41 14 44 14 29 -4 -9 -10 -9 -15 -1 -15 6 0 11 -4 11 -9 0 -5 -10 -7
-22 -4 -13 3 -20 3 -17 -1 4 -4 23 -8 44 -10 33 -2 35 -1 19 11 -10 7 -13 13
-7 13 13 0 26 -18 30 -39 1 -7 7 -19 14 -25 9 -8 10 -7 6 6 -4 10 -3 17 1 17
4 -1 9 -1 12 1 25 9 52 8 56 -3 5 -14 31 -16 49 -5 15 9 104 8 110 -1 2 -5 31
-7 65 -7 33 1 60 -1 60 -5 0 -3 25 -7 55 -8 31 0 68 -7 83 -14 16 -8 39 -11
57 -7 17 4 38 3 48 -2 10 -5 17 -5 17 1 0 5 9 7 19 4 10 -3 47 5 81 18 60 22
63 22 114 6 29 -10 83 -17 120 -17 38 0 65 -4 62 -9 -4 -5 7 -7 23 -5 23 4 32
0 41 -16 10 -18 17 -20 53 -15 23 4 44 8 46 10 1 2 15 -1 30 -7 39 -15 314
-24 421 -12 70 7 64 8 140 -12 77 -19 247 -14 261 8 6 9 9 10 9 1 0 -9 14 -11
48 -7 26 3 63 7 82 9 60 5 142 24 173 40 17 8 36 15 44 15 8 0 60 18 116 41
105 42 130 49 182 53 33 2 110 23 137 37 9 4 41 11 70 14 29 3 93 15 142 27
67 15 102 18 140 12 28 -4 83 -8 121 -8 47 -1 81 -7 102 -19 18 -9 52 -17 75
-16 24 0 59 -4 78 -10 44 -14 97 -14 105 -1 9 15 19 12 44 -11 21 -20 30 -21
105 -14 279 25 286 26 352 67 21 14 55 28 74 32 19 3 52 18 73 32 21 14 41 23
45 20 7 -8 -6 -21 -41 -39 l-28 -15 25 -4 c18 -4 23 -1 19 10 -5 12 -2 12 18
2 21 -12 23 -12 11 2 -9 11 -10 18 -2 23 6 4 9 12 8 18 -1 7 3 22 10 35 7 12
10 27 7 32 -4 6 1 7 11 3 12 -4 15 -3 10 5 -4 7 -1 12 8 12 8 0 17 4 20 9 3 5
-2 8 -11 7 -9 0 -18 6 -20 14 -3 10 -2 11 4 3 6 -8 13 -8 27 3 11 8 15 14 9
14 -6 0 -9 10 -8 23 1 12 3 22 5 22 1 0 3 12 4 28 1 18 -2 26 -11 23 -7 -3
-15 0 -19 6 -5 7 -2 8 6 3 10 -6 12 -4 7 9 -4 10 -3 15 3 11 6 -3 10 -3 11 2
3 31 10 48 24 56 11 6 13 12 6 21 -6 7 -6 17 -1 26 5 9 4 20 -3 28 -6 8 -12
24 -14 35 -2 12 -12 34 -23 49 -11 15 -24 38 -29 51 -5 13 -15 24 -23 25 -63
6 -101 11 -106 16 -3 3 -17 -1 -31 -11 -22 -14 -24 -14 -13 -1 8 10 9 19 3 22
-5 3 -12 0 -14 -6 -4 -10 -8 -9 -16 2 -10 14 -16 7 -12 -14 1 -5 -4 -4 -12 2
-8 7 -16 10 -19 7 -3 -3 -11 3 -19 12 -13 16 -12 17 3 5 12 -10 18 -10 24 -1
4 7 3 9 -4 5 -6 -3 -13 -2 -17 3 -3 6 -14 7 -25 3 -11 -4 -60 -3 -111 2 -71 8
-133 6 -278 -9 -285 -28 -334 -33 -366 -39 -95 -19 -567 -27 -695 -11 -105 12
-298 19 -480 16 -14 0 -43 0 -65 1 -44 0 -203 1 -250 0 -16 0 -75 -1 -130 -2
-165 -2 -299 26 -311 64 -4 12 -12 24 -18 29 -14 9 78 97 102 97 20 0 95 26
126 42 12 6 69 13 128 14 97 2 111 5 140 28 18 13 44 27 58 31 27 7 90 59 90
74 0 14 65 43 87 40 10 -2 23 -1 28 2 6 4 23 9 38 13 22 5 28 4 24 -6 -2 -7
-10 -12 -16 -11 -6 2 -11 -9 -11 -23 0 -29 -1 -29 105 -7 33 7 57 8 95 4 14
-2 56 -3 93 -2 59 1 70 4 74 20 5 19 6 19 39 3 18 -9 34 -22 34 -29 0 -30 65
-42 103 -20 31 18 52 15 73 -11 17 -21 24 -22 78 -16 44 5 69 15 102 41 24 18
47 33 50 33 3 0 22 11 42 25 20 14 42 25 49 25 15 0 17 -36 3 -45 -5 -3 -10
-15 -10 -26 0 -18 4 -20 33 -14 17 4 39 14 48 22 10 8 18 10 20 4 6 -15 109
12 120 31 11 20 39 13 39 -9 0 -12 8 -14 35 -10 19 3 35 2 35 -2 0 -5 13 -11
30 -13 24 -4 33 1 46 20 14 22 21 24 64 18 36 -5 49 -3 53 7 5 13 60 32 80 28
4 -1 22 10 40 23 34 25 74 35 94 23 6 -4 24 -1 40 7 15 8 42 18 58 23 46 13
30 28 -26 25 -27 -1 -57 2 -67 7 -15 8 -14 11 10 20 15 6 33 19 40 31 7 11 20
20 29 20 20 0 59 41 59 62 0 9 10 20 23 24 12 4 26 12 30 18 6 8 10 8 14 -1 5
-14 79 -38 103 -34 8 2 23 10 34 19 10 10 32 18 50 19 47 2 110 14 116 22 3 4
37 7 77 7 45 0 77 4 85 12 6 6 22 12 34 12 25 0 40 15 49 51 6 23 12 27 45 27
29 1 38 -3 34 -13 -4 -9 1 -13 12 -11 10 2 20 9 23 17 3 8 12 14 19 15 6 1 20
2 30 3 9 0 28 17 41 36 28 41 41 44 41 10 0 -18 5 -25 20 -25 23 0 27 29 8 49
-11 10 -6 18 21 43 25 23 36 27 42 17 4 -7 4 -19 0 -26 -11 -20 -1 -83 13 -83
7 0 13 -7 13 -15 0 -8 -7 -15 -16 -15 -13 0 -14 -2 -2 -9 21 -13 41 9 29 32
-14 26 5 43 49 45 67 3 192 36 180 48 -3 3 4 17 16 30 l21 25 17 -22 c25 -33
51 -19 46 26 -3 24 1 39 14 51 24 21 37 11 15 -11 -18 -18 -21 -41 -6 -50 5
-3 16 10 24 28 8 19 20 38 27 42 14 9 219 15 233 8 4 -3 2 -9 -5 -14 -10 -6
-11 -11 -2 -20 16 -16 46 -7 59 19 18 36 27 42 71 46 53 4 82 30 65 57 -10 16
-9 19 7 19 30 0 32 13 6 32 -23 17 -24 17 -50 -13 -24 -29 -30 -31 -68 -26
-106 16 -115 22 -93 64 14 27 13 31 -5 46 -10 9 -23 17 -28 17 -14 0 -33 -28
-23 -34 5 -3 7 -17 4 -31 -2 -14 -7 -23 -10 -21 -3 3 -11 1 -19 -5 -9 -8 -10
-15 -3 -24 14 -16 6 -21 -45 -30 l-40 -6 22 19 c16 14 19 22 11 30 -9 9 -15 9
-25 0 -10 -8 -12 -7 -8 4 4 9 26 21 51 28 61 17 66 32 9 29 -35 -2 -49 1 -56
13 -6 11 -19 15 -37 13 -15 -2 -33 -4 -40 -4 -7 -1 -10 -5 -7 -11 3 -5 1 -10
-4 -10 -6 0 -11 5 -11 10 0 19 -17 10 -28 -14 -8 -19 -8 -26 1 -29 9 -3 9 -9
0 -25 -10 -17 -10 -24 3 -36 8 -9 13 -20 10 -25 -10 -15 22 -21 34 -5 13 15
40 19 40 7 -1 -27 -20 -33 -101 -30 -75 3 -84 5 -81 22 3 14 -1 16 -15 10 -40
-16 -68 -13 -85 8 -15 19 -19 20 -41 8 -32 -17 -145 -18 -175 -2 -31 16 -23
35 16 39 18 2 37 11 44 21 9 12 33 20 73 24 105 12 131 21 138 47 5 21 31 27
42 10 9 -14 63 -12 68 3 3 9 7 9 18 1 18 -14 150 -9 159 7 5 6 13 8 20 4 10
-6 9 -11 -5 -21 -36 -26 -5 -26 48 0 65 32 65 32 95 4 l24 -23 15 23 c11 15
25 22 49 22 19 0 34 -4 34 -10 0 -5 12 -10 28 -10 15 0 33 -4 41 -9 8 -5 24
-6 37 -1 16 7 24 5 28 -6 8 -21 28 -17 56 13 l25 26 10 -27 c8 -23 14 -27 35
-22 77 16 93 17 118 7 19 -8 46 -9 84 -3 41 6 63 5 80 -4 13 -7 39 -17 58 -22
33 -10 32 -10 -17 -7 -29 2 -58 7 -65 11 -22 14 -50 15 -87 2 -20 -7 -40 -11
-44 -10 -5 1 -6 -2 -2 -8 3 -5 -2 -10 -12 -10 -16 -1 -16 -2 -2 -10 17 -10 65
-8 76 3 12 12 22 7 17 -8 -4 -8 -1 -15 4 -15 6 0 13 9 17 19 6 21 35 37 35 20
0 -7 10 -9 26 -5 17 5 23 3 19 -4 -3 -5 -3 -10 2 -11 83 -8 97 -5 82 22 -11
22 -6 24 21 7 15 -10 22 -9 38 5 16 15 28 16 76 9 63 -10 78 -3 111 50 16 26
16 27 -7 39 -13 7 -27 14 -33 16 -5 1 -53 17 -105 36 -121 42 -104 38 -175 42
-61 4 -116 10 -172 20 -31 6 -43 4 -43 -5 0 -14 -92 -5 -125 13 -21 11 -169
20 -178 10z m-376 -239 c12 -34 -6 -65 -50 -81 -35 -13 -41 -2 -16 31 8 11 15
26 15 33 0 15 21 42 33 43 4 0 12 -12 18 -26z m245 -77 c10 4 12 0 8 -13 -15
-41 -24 -44 -128 -42 -55 0 -85 3 -66 5 63 6 78 12 76 30 0 9 7 19 17 21 10 2
17 -3 17 -12 0 -9 -4 -16 -10 -16 -5 0 -10 -5 -10 -11 0 -6 10 -9 23 -7 15 2
21 9 19 22 -4 21 18 40 32 26 4 -4 15 -6 22 -3z m-1233 -1412 c-7 -21 -12 -19
-10 4 0 11 5 18 9 15 4 -3 5 -11 1 -19z m-3 -35 c8 -5 11 -10 5 -10 -5 0 -17
5 -25 10 -8 5 -10 10 -5 10 6 0 17 -5 25 -10z m-24 -147 c-10 -11 -19 -7 -22
10 -2 15 0 16 12 6 8 -6 12 -14 10 -16z m-10 -48 c1 -9 -4 -11 -14 -7 -10 4
-12 7 -4 10 7 2 9 9 5 15 -3 7 -2 8 2 4 5 -4 10 -14 11 -22z"/>
<path d="M6851 4734 c0 -11 3 -14 6 -6 3 7 2 16 -1 19 -3 4 -6 -2 -5 -13z"/>
<path d="M5935 4980 c3 -5 8 -10 11 -10 2 0 4 5 4 10 0 6 -5 10 -11 10 -5 0
-7 -4 -4 -10z"/>
<path d="M5196 4865 c4 -9 11 -14 16 -13 15 5 11 23 -6 26 -11 2 -14 -2 -10
-13z"/>
<path d="M5244 4848 c-4 -5 -3 -12 0 -15 7 -8 36 4 36 15 0 11 -29 11 -36 0z"/>
<path d="M14157 4843 c-10 -9 -9 -23 1 -23 5 0 9 7 9 15 0 17 -1 18 -10 8z"/>
<path d="M7122 4818 c-5 -7 -13 -23 -16 -35 -6 -20 -4 -23 21 -24 15 0 60 -2
100 -3 40 -1 75 -5 79 -8 3 -4 17 -2 31 3 23 9 25 8 19 -13 -3 -13 -6 -29 -6
-35 0 -7 -5 -13 -11 -13 -5 0 -8 4 -5 8 9 15 -9 31 -24 21 -13 -8 -13 -10 0
-19 12 -8 10 -10 -9 -10 -16 0 -21 -4 -17 -15 3 -8 -3 -19 -12 -25 -14 -8 -15
-11 -3 -19 9 -6 22 -6 32 -1 20 11 29 4 29 -27 0 -28 6 -29 45 -3 34 23 46 25
43 8 -3 -13 87 -18 114 -6 13 6 17 3 20 -14 l3 -23 22 24 c18 19 24 21 43 11
18 -9 24 -9 30 0 5 9 9 9 14 1 12 -19 141 3 216 37 24 12 47 17 50 12 6 -10
24 -13 66 -11 23 1 34 8 43 28 10 22 10 28 0 32 -7 2 -4 8 9 15 30 16 13 36
-35 43 -38 5 -83 -9 -83 -26 0 -4 10 -12 22 -18 18 -8 13 -9 -27 -7 -77 4
-156 15 -182 25 -16 6 -33 5 -51 -4 -28 -13 -94 -14 -125 -2 -9 4 -27 5 -40 2
-21 -6 -21 -6 -3 8 11 8 15 15 9 15 -6 0 -9 9 -6 20 4 16 0 20 -18 20 -36 0
-69 -11 -63 -21 3 -5 -8 -1 -25 8 -16 10 -27 21 -25 25 3 5 1 8 -4 8 -13 0
-33 -26 -26 -33 4 -4 -9 -2 -27 3 -19 6 -57 8 -85 4 -39 -4 -55 -2 -67 10 -8
9 -20 16 -26 16 -6 0 -11 5 -11 10 0 14 -16 13 -28 -2z m346 -78 c12 0 22 -4
22 -8 0 -4 -16 -6 -35 -4 -27 3 -35 1 -35 -12 0 -18 -2 -19 -24 -10 -36 14
-11 47 29 39 11 -3 30 -5 43 -5z"/>
<path d="M6637 4814 c-4 -4 1 -13 11 -20 9 -7 12 -14 5 -14 -16 0 -36 -61 -23
-74 21 -21 48 -13 52 16 3 15 0 28 -5 28 -5 0 -7 6 -4 13 6 16 -26 61 -36 51z"/>
<path d="M7230 4800 c0 -5 5 -10 10 -10 6 0 10 5 10 10 0 6 -4 10 -10 10 -5 0
-10 -4 -10 -10z"/>
<path d="M11386 4801 c-4 -5 -2 -12 3 -15 5 -4 12 -2 15 3 4 5 2 12 -3 15 -5
4 -12 2 -15 -3z"/>
<path d="M11355 4790 c3 -5 8 -10 11 -10 2 0 4 5 4 10 0 6 -5 10 -11 10 -5 0
-7 -4 -4 -10z"/>
<path d="M11613 4786 c-13 -6 -23 -14 -23 -19 0 -4 5 -5 11 -1 6 3 16 0 21 -7
8 -12 9 -11 5 1 -2 8 3 20 12 27 20 15 4 15 -26 -1z"/>
<path d="M6720 4764 c0 -14 3 -14 15 -4 8 7 15 14 15 16 0 2 -7 4 -15 4 -8 0
-15 -7 -15 -16z"/>
<path d="M7925 4770 c3 -5 8 -10 11 -10 2 0 4 5 4 10 0 6 -5 10 -11 10 -5 0
-7 -4 -4 -10z"/>
<path d="M6520 4746 c0 -9 5 -16 10 -16 6 0 10 4 10 9 0 6 -4 13 -10 16 -5 3
-10 -1 -10 -9z"/>
<path d="M6555 4750 c-3 -5 1 -10 9 -10 9 0 16 5 16 10 0 6 -4 10 -9 10 -6 0
-13 -4 -16 -10z"/>
<path d="M8070 4749 c0 -5 5 -7 10 -4 6 3 10 8 10 11 0 2 -4 4 -10 4 -5 0 -10
-5 -10 -11z"/>
<path d="M11882 4756 c4 -5 2 -16 -5 -25 -10 -14 -10 -14 5 -3 13 10 17 10 21
0 3 -8 6 -8 6 -2 1 6 -7 18 -16 25 -10 7 -15 9 -11 5z"/>
<path d="M6428 4738 c-7 -19 3 -58 13 -52 12 7 12 64 0 64 -5 0 -11 -5 -13
-12z"/>
<path d="M7185 4740 c-3 -5 3 -10 14 -10 12 0 21 5 21 10 0 6 -6 10 -14 10 -8
0 -18 -4 -21 -10z"/>
<path d="M6930 4730 c0 -5 5 -10 10 -10 6 0 10 5 10 10 0 6 -4 10 -10 10 -5 0
-10 -4 -10 -10z"/>
<path d="M7865 4730 c-13 -5 -14 -9 -5 -9 8 0 24 4 35 9 13 5 14 9 5 9 -8 0
-24 -4 -35 -9z"/>
<path d="M3605 4719 c-10 -15 1 -22 24 -14 12 3 19 11 16 16 -8 12 -32 11 -40
-2z"/>
<path d="M6500 4710 c0 -5 7 -10 15 -10 8 0 15 5 15 10 0 6 -7 10 -15 10 -8 0
-15 -4 -15 -10z"/>
<path d="M6556 4711 c-3 -5 1 -12 10 -15 25 -10 34 -7 34 9 0 16 -35 21 -44 6z"/>
<path d="M3240 4700 c0 -5 7 -7 15 -4 8 4 15 8 15 10 0 2 -7 4 -15 4 -8 0 -15
-4 -15 -10z"/>
<path d="M3435 4700 c-17 -8 -17 -9 7 -7 15 1 24 5 22 9 -3 4 -6 8 -7 7 -1 0
-11 -4 -22 -9z"/>
<path d="M6705 4700 c-3 -6 0 -10 8 -10 8 0 14 -8 13 -17 -1 -20 25 -25 31 -7
5 15 -44 47 -52 34z"/>
<path d="M7148 4703 c7 -3 16 -2 19 1 4 3 -2 6 -13 5 -11 0 -14 -3 -6 -6z"/>
<path d="M2970 4680 c0 -5 5 -10 10 -10 6 0 10 5 10 10 0 6 -4 10 -10 10 -5 0
-10 -4 -10 -10z"/>
<path d="M6585 4670 c3 -5 12 -7 20 -3 21 7 19 13 -6 13 -11 0 -18 -4 -14 -10z"/>
<path d="M7160 4570 c0 -5 5 -10 11 -10 5 0 7 5 4 10 -3 6 -8 10 -11 10 -2 0
-4 -4 -4 -10z"/>
<path d="M6854 4552 c-10 -19 -7 -82 5 -82 4 0 8 6 8 13 0 6 4 26 7 44 7 36
-5 51 -20 25z"/>
<path d="M6955 4560 c-8 -12 20 -24 35 -15 5 3 10 10 10 16 0 12 -37 12 -45
-1z"/>
<path d="M7265 4560 c3 -5 16 -10 28 -10 18 0 19 2 7 10 -20 13 -43 13 -35 0z"/>
<path d="M7183 4538 c-12 -16 -13 -49 -1 -42 4 3 8 12 8 21 0 13 2 14 17 2 11
-10 14 -10 9 -1 -4 7 -1 12 8 12 9 0 16 5 16 10 0 14 -46 12 -57 -2z"/>
<path d="M7555 4540 c-3 -5 -1 -10 4 -10 6 0 11 5 11 10 0 6 -2 10 -4 10 -3 0
-8 -4 -11 -10z"/>
<path d="M6809 4511 c-12 -21 -13 -28 -3 -28 14 0 37 44 26 51 -4 2 -15 -8
-23 -23z"/>
<path d="M7456 4523 c-6 -14 -5 -15 5 -6 7 7 10 15 7 18 -3 3 -9 -2 -12 -12z"/>
<path d="M7309 4528 c-3 -10 -7 -38 -5 -38 1 0 9 9 19 20 14 17 14 20 2 20 -8
0 -15 -1 -16 -2z"/>
<path d="M6778 4468 c5 -5 16 -8 23 -6 8 3 3 7 -10 11 -17 4 -21 3 -13 -5z"/>
<path d="M6750 4454 c0 -8 5 -12 10 -9 6 4 8 11 5 16 -9 14 -15 11 -15 -7z"/>
<path d="M6681 4444 c0 -11 3 -14 6 -6 3 7 2 16 -1 19 -3 4 -6 -2 -5 -13z"/>
<path d="M6700 4456 c0 -2 7 -9 15 -16 9 -7 15 -8 15 -2 0 5 -7 12 -15 16 -8
3 -15 4 -15 2z"/>
<path d="M6630 4410 c0 -5 7 -7 15 -4 8 4 15 8 15 10 0 2 -7 4 -15 4 -8 0 -15
-4 -15 -10z"/>
<path d="M6340 4361 c0 -7 -5 -9 -12 -5 -7 5 -8 3 -3 -5 5 -9 10 -10 18 -2 6
6 8 14 4 18 -4 3 -7 1 -7 -6z"/>
<path d="M6217 4333 c-4 -3 -7 -11 -7 -17 0 -6 5 -5 12 2 6 6 9 14 7 17 -3 3
-9 2 -12 -2z"/>
<path d="M6178 4313 c7 -3 16 -2 19 1 4 3 -2 6 -13 5 -11 0 -14 -3 -6 -6z"/>
<path d="M647 4259 c4 -13 8 -18 11 -10 2 7 -1 18 -6 23 -8 8 -9 4 -5 -13z"/>
<path d="M610 4226 c0 -2 7 -7 16 -10 8 -3 12 -2 9 4 -6 10 -25 14 -25 6z"/>
<path d="M5790 4190 c0 -5 5 -10 10 -10 6 0 10 5 10 10 0 6 -4 10 -10 10 -5 0
-10 -4 -10 -10z"/>
<path d="M5518 4173 c-21 -5 -24 -23 -4 -23 8 0 16 7 20 15 3 8 4 14 3 14 -1
-1 -10 -3 -19 -6z"/>
<path d="M5647 4173 c-12 -12 -7 -22 8 -17 8 4 15 10 15 15 0 11 -14 12 -23 2z"/>
<path d="M5710 4130 c0 -5 5 -10 11 -10 5 0 7 5 4 10 -3 6 -8 10 -11 10 -2 0
-4 -4 -4 -10z"/>
<path d="M5505 4100 c-3 -5 1 -10 10 -10 9 0 13 5 10 10 -3 6 -8 10 -10 10 -2
0 -7 -4 -10 -10z"/>
<path d="M5407 4093 c-3 -5 -1 -17 4 -28 7 -17 8 -17 8 8 1 27 -4 34 -12 20z"/>
<path d="M5646 4081 c-3 -5 1 -11 9 -14 9 -4 12 -1 8 9 -6 16 -10 17 -17 5z"/>
<path d="M5450 4036 c0 -9 7 -12 20 -9 31 8 34 23 6 23 -16 0 -26 -6 -26 -14z"/>
<path d="M5331 3939 c12 -23 15 -23 22 -5 3 8 -2 16 -14 19 -16 4 -17 2 -8
-14z"/>
<path d="M4000 3840 c0 -5 7 -10 16 -10 8 0 12 5 9 10 -3 6 -10 10 -16 10 -5
0 -9 -4 -9 -10z"/>
<path d="M300 3809 c0 -5 5 -7 10 -4 6 3 10 8 10 11 0 2 -4 4 -10 4 -5 0 -10
-5 -10 -11z"/>
<path d="M4433 3709 c-1 -12 -1 -20 0 -18 2 2 9 12 16 22 11 14 11 17 -1 17
-7 0 -14 -10 -15 -21z"/>
<path d="M4935 3639 c-3 -4 2 -9 10 -13 8 -3 12 -12 9 -21 -3 -8 -11 -12 -17
-8 -6 4 -7 1 -2 -7 6 -10 11 -10 20 3 7 9 16 13 21 9 4 -4 2 1 -5 10 -7 9 -10
21 -7 26 3 5 -2 9 -10 9 -8 0 -17 -4 -19 -8z"/>
<path d="M5841 3444 c0 -11 3 -14 6 -6 3 7 2 16 -1 19 -3 4 -6 -2 -5 -13z"/>
<path d="M5880 3399 c0 -5 5 -7 10 -4 6 3 10 8 10 11 0 2 -4 4 -10 4 -5 0 -10
-5 -10 -11z"/>
<path d="M85 3360 c-4 -6 -3 -10 2 -9 24 4 35 -2 26 -13 -6 -7 -10 -21 -10
-31 0 -16 2 -16 18 -1 21 19 20 34 -1 51 -19 15 -27 16 -35 3z"/>
<path d="M110 3249 c0 -5 -5 -7 -12 -3 -7 4 -8 3 -4 -4 10 -16 23 -15 30 3 3
8 1 15 -4 15 -6 0 -10 -5 -10 -11z"/>
<path d="M84 3209 c0 -10 4 -19 8 -19 4 0 8 6 8 14 0 8 -4 17 -8 20 -4 2 -8
-4 -8 -15z"/>
<path d="M56 3203 c-6 -14 -5 -15 5 -6 7 7 10 15 7 18 -3 3 -9 -2 -12 -12z"/>
<path d="M5875 3200 c-3 -5 -1 -10 4 -10 6 0 11 5 11 10 0 6 -2 10 -4 10 -3 0
-8 -4 -11 -10z"/>
<path d="M5871 3166 c-9 -10 -8 -15 2 -19 8 -3 13 3 13 14 0 23 0 23 -15 5z"/>
<path d="M130 3155 c0 -8 4 -15 8 -15 5 0 9 7 9 15 0 8 -4 15 -9 15 -4 0 -8
-7 -8 -15z"/>
<path d="M54 3078 c-3 -5 0 -7 8 -6 7 2 12 -2 11 -7 -1 -6 6 -11 16 -11 10 0
18 6 18 12 0 7 -7 10 -15 6 -9 -3 -13 -1 -9 5 3 5 -1 10 -9 10 -8 0 -17 -4
-20 -9z"/>
<path d="M5875 3079 c-4 -6 -5 -12 -2 -15 2 -3 7 2 10 11 7 17 1 20 -8 4z"/>
<path d="M5446 2744 c-6 -16 -9 -16 -17 -4 -9 12 -10 12 -5 -2 3 -10 0 -18 -6
-18 -6 0 -8 -3 -5 -6 4 -4 14 -1 23 7 9 7 23 14 31 15 24 4 41 24 20 24 -9 0
-17 -6 -17 -12 0 -10 -2 -10 -9 0 -6 11 -10 10 -15 -4z"/>
<path d="M4785 2740 c3 -5 8 -10 11 -10 2 0 4 5 4 10 0 6 -5 10 -11 10 -5 0
-7 -4 -4 -10z"/>
<path d="M4859 2748 c-8 -21 -3 -55 7 -54 19 3 30 16 13 16 -11 0 -11 2 1 10
11 7 11 10 2 10 -7 0 -10 5 -7 10 3 6 1 10 -4 10 -6 0 -11 -1 -12 -2z"/>
<path d="M5034 2741 c4 -6 0 -14 -11 -18 -28 -10 -43 -36 -31 -50 6 -7 15 -13
21 -13 6 0 3 6 -8 13 -17 13 -17 14 3 19 26 7 47 44 30 54 -7 4 -8 3 -4 -5z"/>
<path d="M1467 2683 c-9 -2 -15 -8 -12 -13 6 -10 45 -1 45 11 0 9 -4 10 -33 2z"/>
<path d="M4481 2681 c-7 -5 -12 -14 -10 -20 2 -6 10 -2 17 9 14 22 13 23 -7
11z"/>
<path d="M179 2621 c6 -10 7 -22 3 -26 -4 -5 -1 -5 6 -1 9 5 9 12 2 27 -6 10
-13 19 -16 19 -2 0 0 -8 5 -19z"/>
<path d="M165 2570 c-3 -5 -13 -6 -23 -3 -9 3 -14 3 -11 -1 9 -10 50 -16 44
-6 -3 4 1 11 7 13 9 4 10 6 1 6 -6 1 -14 -3 -18 -9z"/>
<path d="M1487 2480 c-8 -11 -17 -18 -20 -15 -4 3 -5 2 -2 -2 3 -3 0 -12 -6
-19 -8 -10 -2 -9 20 2 19 9 31 23 31 35 0 24 -5 24 -23 -1z"/>
</g>
</svg>
